{"glyphs":{"0":{"ha":989,"x_min":33,"x_max":1013,"o":"m 414 -21 q 136 76 239 -21 q 33 346 33 172 q 49 485 33 417 q 164 758 82 643 q 365 932 246 872 q 629 992 485 992 q 911 897 810 992 q 1013 629 1013 801 q 996 485 1013 563 q 879 214 963 328 q 676 40 796 100 q 414 -21 557 -21 m 479 286 q 595 338 550 286 q 660 482 640 389 q 671 569 671 533 q 565 681 671 681 q 449 628 494 681 q 382 482 403 575 q 371 394 371 431 q 397 314 371 342 q 479 286 422 286 z "},"1":{"ha":588,"x_min":50,"x_max":669,"o":"m 268 629 l 50 493 l 114 792 l 396 971 l 669 971 l 464 0 l 135 0 l 268 629 z "},"2":{"ha":817,"x_min":-54,"x_max":847,"o":"m -19 167 l 119 271 q 240 358 158 301 q 417 494 361 443 q 483 592 474 544 q 486 613 486 606 q 376 681 486 681 q 237 654 313 681 q 97 585 161 628 l 164 896 q 335 966 238 940 q 533 992 433 992 q 765 924 683 992 q 847 749 847 857 q 840 688 847 722 q 754 488 814 568 q 581 322 694 407 l 482 249 l 774 249 l 721 0 l -54 0 l -19 167 z "},"3":{"ha":821,"x_min":-44,"x_max":853,"o":"m 275 -21 q 93 -4 178 -21 q -44 46 8 13 l 7 292 q 279 224 139 224 q 453 314 453 224 q 420 356 453 343 q 314 368 388 368 l 165 368 l 217 608 l 358 608 q 463 625 426 608 q 506 679 499 642 q 507 693 507 683 q 399 747 507 747 q 242 728 314 747 q 101 669 171 708 l 156 922 q 317 973 226 954 q 496 992 407 992 q 765 932 676 992 q 853 763 853 872 q 844 692 853 729 q 801 585 833 638 q 717 489 768 532 q 792 343 792 431 q 785 282 792 317 q 275 -21 719 -21 z "},"4":{"ha":875,"x_min":-44,"x_max":897,"o":"m 383 178 l -44 178 l -4 371 l 575 971 l 881 971 l 765 426 l 897 426 l 844 178 l 713 178 l 675 0 l 346 0 l 383 178 m 485 426 l 518 588 l 364 426 l 485 426 z "},"5":{"ha":824,"x_min":-43,"x_max":871,"o":"m 261 -21 q 88 -1 172 -21 q -43 54 4 19 l 15 328 q 149 257 71 282 q 299 232 226 232 q 460 322 440 232 q 463 342 463 336 q 342 414 463 414 q 241 405 296 414 q 144 381 186 396 l 44 446 l 194 971 l 871 971 l 818 722 l 449 722 l 424 638 q 539 649 472 649 q 739 592 669 649 q 808 425 808 536 q 797 332 808 385 q 626 72 761 165 q 261 -21 492 -21 z "},"6":{"ha":897,"x_min":28,"x_max":882,"o":"m 372 -21 q 194 22 272 -21 q 72 144 115 65 q 28 329 28 224 q 40 444 28 385 q 170 738 76 614 q 394 926 264 861 q 669 992 525 992 q 868 961 788 992 l 811 696 q 640 738 747 738 q 505 705 569 738 q 413 613 440 672 q 510 647 450 633 q 626 661 571 661 q 812 599 742 661 q 882 424 882 538 q 872 336 882 379 q 786 155 851 236 q 615 26 721 74 q 372 -21 510 -21 m 424 222 q 499 248 469 222 q 539 321 528 274 q 542 350 542 332 q 465 419 542 419 q 393 393 424 419 q 353 321 363 367 q 350 293 350 311 q 369 242 350 261 q 424 222 388 222 z "},"7":{"ha":739,"x_min":-15,"x_max":863,"o":"m 467 722 l 85 722 l 138 971 l 863 971 l 821 775 l 304 0 l -15 0 l 467 722 z "},"8":{"ha":894,"x_min":-1,"x_max":924,"o":"m 367 -21 q 97 43 196 -21 q -1 224 -1 107 q 6 286 -1 249 q 64 415 22 360 q 165 501 106 469 q 118 638 118 558 q 125 700 118 663 q 276 915 154 839 q 582 992 399 992 q 833 932 743 992 q 924 763 924 872 q 917 700 924 738 q 790 501 890 579 q 846 438 826 476 q 865 350 865 400 q 858 286 865 314 q 694 60 828 140 q 367 -21 561 -21 m 494 579 q 567 610 535 579 q 599 681 599 640 q 580 728 599 710 q 531 747 561 747 q 459 717 490 747 q 428 644 428 686 q 447 598 428 617 q 494 579 465 579 m 419 222 q 505 258 471 222 q 539 342 539 293 q 517 395 539 374 q 460 417 494 417 q 376 381 414 417 q 339 297 339 344 q 360 243 339 264 q 419 222 381 222 z "},"9":{"ha":897,"x_min":72,"x_max":929,"o":"m 282 -21 q 85 10 163 -21 l 142 275 q 311 233 204 233 q 447 266 382 233 q 539 358 513 299 q 447 323 500 336 q 340 310 394 310 q 144 373 217 310 q 72 553 72 436 q 82 642 72 597 q 167 821 103 742 q 335 946 231 900 q 579 992 440 992 q 841 907 753 992 q 929 668 929 822 q 913 526 929 601 q 780 229 875 353 q 555 42 685 106 q 282 -21 425 -21 m 488 551 q 560 578 529 551 q 600 650 590 604 q 603 678 603 660 q 584 729 603 710 q 529 749 565 749 q 454 723 483 749 q 414 650 425 697 q 410 619 410 633 q 430 569 410 588 q 488 551 450 551 z "},"\r":{"ha":361,"x_min":0,"x_max":0,"o":""}," ":{"ha":417,"x_min":0,"x_max":0,"o":""},"A":{"ha":1131,"x_min":-54,"x_max":1035,"o":"m 540 971 l 851 971 l 1035 0 l 704 0 l 676 169 l 388 169 l 290 0 l -54 0 l 540 971 m 656 411 l 632 635 l 511 411 l 656 411 z "},"Á":{"ha":1131,"x_min":-54,"x_max":1035,"o":"m 704 1282 l 1006 1282 l 821 1031 l 557 1031 l 704 1282 m 540 971 l 851 971 l 1035 0 l 704 0 l 676 169 l 388 169 l 290 0 l -54 0 l 540 971 m 656 411 l 632 635 l 511 411 l 656 411 z "},"Â":{"ha":1131,"x_min":-54,"x_max":1050,"o":"m 596 1296 l 876 1296 l 1050 1031 l 768 1031 l 710 1142 l 604 1031 l 313 1031 l 596 1296 m 540 971 l 851 971 l 1035 0 l 704 0 l 676 169 l 388 169 l 290 0 l -54 0 l 540 971 m 656 411 l 632 635 l 511 411 l 656 411 z "},"Ä":{"ha":1131,"x_min":-54,"x_max":1035,"o":"m 519 1031 q 449 1058 478 1031 q 421 1128 421 1086 q 443 1199 421 1165 q 501 1253 465 1233 q 571 1274 536 1274 q 641 1247 614 1274 q 668 1178 668 1219 q 647 1105 668 1139 q 591 1051 625 1071 q 519 1031 557 1031 m 846 1031 q 774 1058 803 1031 q 746 1126 746 1085 q 768 1199 746 1165 q 825 1253 790 1233 q 897 1274 860 1274 q 967 1247 940 1274 q 993 1178 993 1219 q 972 1105 993 1139 q 916 1051 950 1071 q 846 1031 882 1031 m 540 971 l 851 971 l 1035 0 l 704 0 l 676 169 l 388 169 l 290 0 l -54 0 l 540 971 m 656 411 l 632 635 l 511 411 l 656 411 z "},"À":{"ha":1131,"x_min":-54,"x_max":1035,"o":"m 468 1282 l 769 1282 l 811 1031 l 547 1031 l 468 1282 m 540 971 l 851 971 l 1035 0 l 704 0 l 676 169 l 388 169 l 290 0 l -54 0 l 540 971 m 656 411 l 632 635 l 511 411 l 656 411 z "},"Å":{"ha":1131,"x_min":-54,"x_max":1035,"o":"m 518 935 q 493 1026 493 978 q 499 1072 493 1042 q 593 1225 518 1164 q 763 1286 668 1286 q 892 1239 842 1286 q 942 1118 942 1192 q 936 1072 942 1103 q 858 933 918 993 l 1035 0 l 704 0 l 676 169 l 388 169 l 290 0 l -54 0 l 518 935 m 704 1015 q 753 1037 732 1015 q 775 1088 775 1058 q 729 1129 775 1129 q 680 1108 701 1129 q 658 1057 658 1086 q 670 1027 658 1039 q 704 1015 682 1015 m 656 411 l 632 635 l 511 411 l 656 411 z "},"Ã":{"ha":1131,"x_min":-54,"x_max":1035,"o":"m 822 1031 q 755 1040 788 1031 q 679 1067 722 1049 q 610 1092 636 1083 q 554 1100 583 1100 q 388 1032 464 1100 l 432 1244 q 597 1300 493 1300 q 658 1292 628 1300 q 735 1265 688 1283 q 805 1240 775 1249 q 865 1231 835 1231 q 1031 1299 954 1231 l 986 1086 q 822 1031 925 1031 m 540 971 l 851 971 l 1035 0 l 704 0 l 676 169 l 388 169 l 290 0 l -54 0 l 540 971 m 656 411 l 632 635 l 511 411 l 656 411 z "},"Æ":{"ha":1278,"x_min":-54,"x_max":1388,"o":"m 540 971 l 1388 971 l 1329 694 l 953 694 l 935 610 l 1197 610 l 1144 361 l 882 361 l 864 276 l 1240 276 l 1182 0 l 497 0 l 532 169 l 376 169 l 283 0 l -54 0 l 540 971 m 585 417 l 644 694 l 507 417 l 585 417 z "},"B":{"ha":944,"x_min":-26,"x_max":972,"o":"m 179 971 l 701 971 q 899 913 826 971 q 972 756 972 856 q 967 697 972 725 q 921 592 956 643 q 833 510 886 542 q 900 451 879 485 q 921 371 921 418 q 913 303 921 340 q 834 142 893 211 q 692 37 775 74 q 518 0 610 0 l -26 0 l 179 971 m 529 603 q 596 620 572 603 q 628 678 619 638 q 631 700 631 694 q 613 737 631 725 q 560 749 596 749 l 451 749 l 421 603 l 529 603 m 467 222 q 542 242 517 222 q 578 304 568 261 q 581 332 581 314 q 562 374 581 360 q 501 388 543 388 l 375 388 l 340 222 l 467 222 z "},"C":{"ha":931,"x_min":35,"x_max":1018,"o":"m 478 -21 q 247 25 347 -21 q 90 158 146 71 q 35 364 35 246 q 49 485 35 424 q 266 858 99 725 q 693 992 433 992 q 878 974 800 992 q 1018 915 957 956 l 951 604 q 829 668 900 649 q 658 688 758 688 q 477 635 550 688 q 383 485 404 583 q 375 419 375 450 q 423 316 375 350 q 572 282 471 282 q 751 303 669 282 q 913 369 833 325 l 847 60 q 478 -21 688 -21 z "},"Ç":{"ha":931,"x_min":35,"x_max":1018,"o":"m 390 -344 q 231 -322 285 -344 l 258 -207 q 338 -229 293 -229 q 402 -209 381 -229 q 424 -160 424 -189 q 317 -106 424 -106 l 365 -11 q 124 113 213 15 q 35 364 35 211 q 49 485 35 424 q 266 858 99 725 q 693 992 433 992 q 878 974 800 992 q 1018 915 957 956 l 951 604 q 829 668 900 649 q 658 688 758 688 q 477 635 550 688 q 383 485 404 583 q 375 419 375 450 q 423 316 375 350 q 572 282 471 282 q 751 303 669 282 q 913 369 833 325 l 847 60 q 582 -15 726 -1 l 549 -68 q 627 -100 599 -75 q 656 -164 656 -125 q 653 -190 656 -181 q 574 -301 639 -257 q 390 -344 510 -344 z "},"D":{"ha":979,"x_min":-26,"x_max":997,"o":"m 179 971 l 540 971 q 781 923 678 971 q 941 788 885 875 q 997 588 997 701 q 988 490 997 538 q 775 122 938 244 q 346 0 613 0 l -26 0 l 179 971 m 432 306 q 579 350 526 306 q 653 490 632 394 q 660 553 660 528 q 624 637 660 608 q 508 665 589 665 l 443 665 l 367 306 l 432 306 z "},"Ð":{"ha":1022,"x_min":17,"x_max":1040,"o":"m 94 369 l 38 369 l 88 601 l 144 601 l 222 971 l 583 971 q 824 923 721 971 q 984 788 928 875 q 1040 588 1040 701 q 1031 490 1040 538 q 818 122 981 244 q 389 0 656 0 l 17 0 l 94 369 m 475 306 q 622 350 569 306 q 696 490 675 394 q 703 553 703 528 q 667 637 703 608 q 551 665 632 665 l 486 665 l 472 601 l 619 601 l 569 369 l 424 369 l 410 306 l 475 306 z "},"E":{"ha":789,"x_min":-26,"x_max":899,"o":"m 179 971 l 899 971 l 840 694 l 450 694 l 432 610 l 708 610 l 656 361 l 379 361 l 361 276 l 751 276 l 693 0 l -26 0 l 179 971 z "},"É":{"ha":789,"x_min":-26,"x_max":899,"o":"m 526 1282 l 828 1282 l 643 1031 l 379 1031 l 526 1282 m 179 971 l 899 971 l 840 694 l 450 694 l 432 610 l 708 610 l 656 361 l 379 361 l 361 276 l 751 276 l 693 0 l -26 0 l 179 971 z "},"Ê":{"ha":789,"x_min":-26,"x_max":900,"o":"m 446 1282 l 726 1282 l 900 1017 l 618 1017 l 560 1128 l 454 1017 l 163 1017 l 446 1282 m 179 971 l 899 971 l 840 694 l 450 694 l 432 610 l 708 610 l 656 361 l 379 361 l 361 276 l 751 276 l 693 0 l -26 0 l 179 971 z "},"Ë":{"ha":789,"x_min":-26,"x_max":899,"o":"m 378 1031 q 308 1058 336 1031 q 279 1128 279 1086 q 301 1199 279 1165 q 359 1253 324 1233 q 429 1274 394 1274 q 499 1247 472 1274 q 526 1178 526 1219 q 505 1105 526 1139 q 449 1051 483 1071 q 378 1031 415 1031 m 704 1031 q 633 1058 661 1031 q 604 1126 604 1085 q 626 1199 604 1165 q 683 1253 649 1233 q 756 1274 718 1274 q 825 1247 799 1274 q 851 1178 851 1219 q 830 1105 851 1139 q 774 1051 808 1071 q 704 1031 740 1031 m 179 971 l 899 971 l 840 694 l 450 694 l 432 610 l 708 610 l 656 361 l 379 361 l 361 276 l 751 276 l 693 0 l -26 0 l 179 971 z "},"È":{"ha":789,"x_min":-26,"x_max":899,"o":"m 329 1282 l 631 1282 l 672 1031 l 408 1031 l 329 1282 m 179 971 l 899 971 l 840 694 l 450 694 l 432 610 l 708 610 l 656 361 l 379 361 l 361 276 l 751 276 l 693 0 l -26 0 l 179 971 z "},"F":{"ha":761,"x_min":-26,"x_max":899,"o":"m 179 971 l 899 971 l 840 694 l 450 694 l 432 610 l 708 610 l 656 361 l 379 361 l 303 0 l -26 0 l 179 971 z "},"G":{"ha":954,"x_min":35,"x_max":1018,"o":"m 478 -21 q 247 25 347 -21 q 90 158 146 71 q 35 364 35 246 q 49 485 35 424 q 172 756 82 642 q 395 931 261 869 q 693 992 529 992 q 878 974 801 992 q 1018 915 956 956 l 951 607 q 830 671 901 651 q 658 690 758 690 q 476 637 550 690 q 382 485 403 583 q 372 404 372 444 q 414 302 372 336 q 554 268 456 268 q 628 279 594 268 l 647 371 l 540 371 l 581 560 l 976 560 l 871 61 q 478 -21 711 -21 z "},"H":{"ha":1022,"x_min":-26,"x_max":1104,"o":"m 179 971 l 508 971 l 439 646 l 706 646 l 775 971 l 1104 971 l 899 0 l 569 0 l 642 340 l 375 340 l 303 0 l -26 0 l 179 971 z "},"I":{"ha":426,"x_min":-26,"x_max":508,"o":"m 179 971 l 508 971 l 303 0 l -26 0 l 179 971 z "},"Í":{"ha":426,"x_min":-26,"x_max":676,"o":"m 375 1282 l 676 1282 l 492 1031 l 228 1031 l 375 1282 m 179 971 l 508 971 l 303 0 l -26 0 l 179 971 z "},"Î":{"ha":426,"x_min":-26,"x_max":722,"o":"m 268 1282 l 549 1282 l 722 1017 l 440 1017 l 382 1128 l 276 1017 l -15 1017 l 268 1282 m 179 971 l 508 971 l 303 0 l -26 0 l 179 971 z "},"Ï":{"ha":426,"x_min":-26,"x_max":668,"o":"m 194 1031 q 124 1058 153 1031 q 96 1128 96 1086 q 118 1199 96 1165 q 176 1253 140 1233 q 246 1274 211 1274 q 316 1247 289 1274 q 343 1178 343 1219 q 322 1105 343 1139 q 266 1051 300 1071 q 194 1031 232 1031 m 521 1031 q 449 1058 478 1031 q 421 1126 421 1085 q 443 1199 421 1165 q 500 1253 465 1233 q 572 1274 535 1274 q 642 1247 615 1274 q 668 1178 668 1219 q 647 1105 668 1139 q 591 1051 625 1071 q 521 1031 557 1031 m 179 971 l 508 971 l 303 0 l -26 0 l 179 971 z "},"Ì":{"ha":426,"x_min":-26,"x_max":508,"o":"m 147 1282 l 449 1282 l 490 1031 l 226 1031 l 147 1282 m 179 971 l 508 971 l 303 0 l -26 0 l 179 971 z "},"J":{"ha":568,"x_min":-78,"x_max":657,"o":"m 100 -21 q -3 -10 50 -21 q -78 18 -57 1 l -19 296 q 85 272 19 272 q 160 294 132 272 q 199 365 189 317 l 328 971 l 657 971 l 521 328 q 388 65 483 151 q 100 -21 293 -21 z "},"K":{"ha":1074,"x_min":-26,"x_max":1158,"o":"m 179 971 l 508 971 l 433 619 l 781 971 l 1158 971 l 694 501 l 978 0 l 592 0 l 383 379 l 303 0 l -26 0 l 179 971 z "},"L":{"ha":733,"x_min":-26,"x_max":724,"o":"m 179 971 l 508 971 l 361 276 l 724 276 l 665 0 l -26 0 l 179 971 z "},"M":{"ha":1169,"x_min":-26,"x_max":1251,"o":"m 179 971 l 463 971 l 599 457 l 954 971 l 1251 971 l 1046 0 l 742 0 l 818 360 l 563 0 l 457 0 l 354 360 l 278 0 l -26 0 l 179 971 z "},"N":{"ha":992,"x_min":-26,"x_max":1074,"o":"m 179 971 l 469 971 l 663 519 l 758 971 l 1074 971 l 868 0 l 578 0 l 385 453 l 289 0 l -26 0 l 179 971 z "},"Ñ":{"ha":992,"x_min":-26,"x_max":1074,"o":"m 761 1031 q 694 1040 726 1031 q 618 1067 661 1049 q 549 1092 575 1083 q 493 1100 522 1100 q 326 1032 403 1100 l 371 1244 q 536 1300 432 1300 q 597 1292 567 1300 q 674 1265 626 1283 q 744 1240 714 1249 q 804 1231 774 1231 q 969 1299 893 1231 l 925 1086 q 761 1031 864 1031 m 179 971 l 469 971 l 663 519 l 758 971 l 1074 971 l 868 0 l 578 0 l 385 453 l 289 0 l -26 0 l 179 971 z "},"O":{"ha":1096,"x_min":36,"x_max":1115,"o":"m 468 -21 q 250 28 349 -21 q 94 169 151 78 q 36 378 36 260 q 49 485 36 429 q 169 751 81 636 q 392 928 258 865 q 683 992 525 992 q 906 943 808 992 q 1060 804 1004 894 q 1115 596 1115 714 q 1103 485 1115 543 q 981 220 1071 335 q 759 42 892 106 q 468 -21 626 -21 m 535 289 q 683 342 618 289 q 768 485 749 394 q 775 547 775 522 q 618 681 775 681 q 467 628 533 681 q 383 485 401 575 q 375 415 375 447 q 413 321 375 353 q 535 289 451 289 z "},"Ó":{"ha":1096,"x_min":36,"x_max":1115,"o":"m 654 1282 l 956 1282 l 771 1031 l 507 1031 l 654 1282 m 468 -21 q 250 28 349 -21 q 94 169 151 78 q 36 378 36 260 q 49 485 36 429 q 169 751 81 636 q 392 928 258 865 q 683 992 525 992 q 906 943 808 992 q 1060 804 1004 894 q 1115 596 1115 714 q 1103 485 1115 543 q 981 220 1071 335 q 759 42 892 106 q 468 -21 626 -21 m 535 289 q 683 342 618 289 q 768 485 749 394 q 775 547 775 522 q 618 681 775 681 q 467 628 533 681 q 383 485 401 575 q 375 415 375 447 q 413 321 375 353 q 535 289 451 289 z "},"Ô":{"ha":1096,"x_min":36,"x_max":1115,"o":"m 582 1315 l 863 1315 l 1036 1050 l 754 1050 l 696 1161 l 590 1050 l 299 1050 l 582 1315 m 468 -21 q 250 28 349 -21 q 94 169 151 78 q 36 378 36 260 q 49 485 36 429 q 169 751 81 636 q 392 928 258 865 q 683 992 525 992 q 906 943 808 992 q 1060 804 1004 894 q 1115 596 1115 714 q 1103 485 1115 543 q 981 220 1071 335 q 759 42 892 106 q 468 -21 626 -21 m 535 289 q 683 342 618 289 q 768 485 749 394 q 775 547 775 522 q 618 681 775 681 q 467 628 533 681 q 383 485 401 575 q 375 415 375 447 q 413 321 375 353 q 535 289 451 289 z "},"Ö":{"ha":1096,"x_min":36,"x_max":1115,"o":"m 504 1044 q 434 1072 463 1044 q 406 1142 406 1100 q 428 1213 406 1179 q 485 1267 450 1247 q 556 1288 521 1288 q 626 1260 599 1288 q 653 1192 653 1233 q 631 1119 653 1153 q 576 1065 610 1085 q 504 1044 542 1044 m 831 1044 q 759 1072 788 1044 q 731 1140 731 1099 q 753 1213 731 1179 q 810 1267 775 1247 q 882 1288 844 1288 q 951 1260 925 1288 q 978 1192 978 1233 q 956 1119 978 1153 q 901 1065 935 1085 q 831 1044 867 1044 m 468 -21 q 250 28 349 -21 q 94 169 151 78 q 36 378 36 260 q 49 485 36 429 q 169 751 81 636 q 392 928 258 865 q 683 992 525 992 q 906 943 808 992 q 1060 804 1004 894 q 1115 596 1115 714 q 1103 485 1115 543 q 981 220 1071 335 q 759 42 892 106 q 468 -21 626 -21 m 535 289 q 683 342 618 289 q 768 485 749 394 q 775 547 775 522 q 618 681 775 681 q 467 628 533 681 q 383 485 401 575 q 375 415 375 447 q 413 321 375 353 q 535 289 451 289 z "},"Ò":{"ha":1096,"x_min":36,"x_max":1115,"o":"m 458 1282 l 760 1282 l 801 1031 l 538 1031 l 458 1282 m 468 -21 q 250 28 349 -21 q 94 169 151 78 q 36 378 36 260 q 49 485 36 429 q 169 751 81 636 q 392 928 258 865 q 683 992 525 992 q 906 943 808 992 q 1060 804 1004 894 q 1115 596 1115 714 q 1103 485 1115 543 q 981 220 1071 335 q 759 42 892 106 q 468 -21 626 -21 m 535 289 q 683 342 618 289 q 768 485 749 394 q 775 547 775 522 q 618 681 775 681 q 467 628 533 681 q 383 485 401 575 q 375 415 375 447 q 413 321 375 353 q 535 289 451 289 z "},"Ø":{"ha":1096,"x_min":38,"x_max":1115,"o":"m 222 43 q 87 182 136 96 q 38 378 38 268 q 49 485 38 435 q 169 751 81 636 q 392 928 258 865 q 683 992 525 992 q 797 981 739 992 l 864 1089 l 1018 1089 l 922 933 q 1065 797 1014 883 q 1115 596 1115 710 q 1103 485 1115 543 q 981 220 1071 335 q 759 42 892 106 q 468 -21 626 -21 q 344 -6 406 -21 l 275 -119 l 122 -119 l 222 43 m 613 681 q 465 625 531 678 q 383 485 400 572 q 375 415 375 447 q 400 333 375 365 l 613 681 m 535 289 q 683 342 618 289 q 768 485 749 394 q 775 546 775 522 q 742 642 775 608 l 525 289 l 535 289 z "},"Õ":{"ha":1096,"x_min":36,"x_max":1115,"o":"m 808 1047 q 741 1056 774 1047 q 665 1083 708 1065 q 596 1108 622 1100 q 540 1117 569 1117 q 374 1049 450 1117 l 418 1261 q 583 1317 479 1317 q 644 1308 614 1317 q 721 1282 674 1300 q 791 1256 761 1265 q 851 1247 821 1247 q 1017 1315 940 1247 l 972 1103 q 808 1047 911 1047 m 468 -21 q 250 28 349 -21 q 94 169 151 78 q 36 378 36 260 q 49 485 36 429 q 169 751 81 636 q 392 928 258 865 q 683 992 525 992 q 906 943 808 992 q 1060 804 1004 894 q 1115 596 1115 714 q 1103 485 1115 543 q 981 220 1071 335 q 759 42 892 106 q 468 -21 626 -21 m 535 289 q 683 342 618 289 q 768 485 749 394 q 775 547 775 522 q 618 681 775 681 q 467 628 533 681 q 383 485 401 575 q 375 415 375 447 q 413 321 375 353 q 535 289 451 289 z "},"Œ":{"ha":1240,"x_min":36,"x_max":1350,"o":"m 499 0 q 260 45 365 0 q 96 176 156 90 q 36 379 36 263 q 49 485 36 429 q 171 744 81 635 q 399 913 261 854 q 704 971 536 971 l 1350 971 l 1292 694 l 943 694 l 925 610 l 1160 610 l 1107 361 l 872 361 l 854 276 l 1203 276 l 1144 0 l 499 0 m 606 660 q 383 485 419 660 q 375 421 375 450 q 411 338 375 365 q 532 310 447 310 l 606 660 z "},"P":{"ha":914,"x_min":-26,"x_max":972,"o":"m 179 971 l 646 971 q 881 901 789 971 q 972 701 972 831 q 963 618 972 658 q 810 353 925 440 q 496 265 696 265 l 358 265 l 303 0 l -26 0 l 179 971 m 482 511 q 585 534 551 511 q 631 618 618 557 q 635 653 635 638 q 608 708 635 692 q 526 725 581 725 l 456 725 l 411 511 l 482 511 z "},"Þ":{"ha":914,"x_min":-26,"x_max":946,"o":"m 179 971 l 508 971 l 482 843 l 619 843 q 860 776 774 843 q 946 582 946 710 q 936 490 946 535 q 775 228 900 318 q 469 138 650 138 l 332 138 l 303 0 l -26 0 l 179 971 m 453 386 q 550 410 511 386 q 601 490 589 433 q 604 519 604 501 q 496 594 604 594 l 428 594 l 385 386 l 453 386 z "},"Q":{"ha":1106,"x_min":36,"x_max":1119,"o":"m 513 0 q 258 44 365 0 q 94 172 151 89 q 36 372 36 256 q 49 485 36 425 q 167 751 81 638 q 385 928 253 865 q 683 992 518 992 q 915 948 817 992 q 1067 821 1014 904 q 1119 622 1119 738 q 1106 501 1119 563 q 1042 359 1092 436 q 939 240 993 282 l 1081 240 l 1031 0 l 513 0 m 535 289 q 683 342 618 289 q 768 485 749 394 q 775 544 775 522 q 736 645 775 610 q 618 681 697 681 q 467 628 533 681 q 383 485 401 575 q 376 429 376 453 q 417 326 376 363 q 535 289 458 289 z "},"R":{"ha":928,"x_min":-26,"x_max":972,"o":"m 179 971 l 646 971 q 885 899 797 971 q 972 701 972 826 q 963 618 972 658 q 880 434 939 510 q 733 315 821 358 l 819 0 l 488 0 l 415 265 l 353 265 l 297 0 l -26 0 l 179 971 m 479 511 q 628 618 606 511 q 632 649 632 635 q 524 725 632 725 l 450 725 l 406 511 l 479 511 z "},"S":{"ha":806,"x_min":-44,"x_max":847,"o":"m 292 -21 q 103 -1 196 -21 q -44 51 10 18 l 17 338 q 167 271 85 293 q 324 249 250 249 q 390 259 371 249 q 410 292 410 269 q 385 330 410 313 q 283 383 360 347 q 135 490 182 433 q 88 624 88 547 q 94 688 88 650 q 174 847 114 778 q 331 953 235 915 q 551 992 428 992 q 716 976 646 992 q 847 929 786 961 l 788 653 q 556 722 679 722 q 447 679 458 722 q 462 646 443 658 q 536 607 481 633 q 585 586 553 601 q 735 488 692 536 q 779 367 779 439 q 768 279 779 331 q 626 57 738 135 q 292 -21 515 -21 z "},"T":{"ha":826,"x_min":72,"x_max":957,"o":"m 321 694 l 72 694 l 131 971 l 957 971 l 899 694 l 650 694 l 503 0 l 174 0 l 321 694 z "},"U":{"ha":1019,"x_min":46,"x_max":1108,"o":"m 429 -21 q 219 24 306 -21 q 90 146 133 68 q 46 326 46 224 q 58 438 46 379 l 172 971 l 501 971 l 390 447 q 382 378 382 408 q 408 306 382 329 q 494 282 433 282 q 608 324 567 282 q 667 447 650 365 l 778 971 l 1108 971 l 994 438 q 429 -21 897 -21 z "},"Ú":{"ha":1019,"x_min":46,"x_max":1108,"o":"m 642 1282 l 943 1282 l 758 1031 l 494 1031 l 642 1282 m 429 -21 q 219 24 306 -21 q 90 146 133 68 q 46 326 46 224 q 58 438 46 379 l 172 971 l 501 971 l 390 447 q 382 378 382 408 q 408 306 382 329 q 494 282 433 282 q 608 324 567 282 q 667 447 650 365 l 778 971 l 1108 971 l 994 438 q 429 -21 897 -21 z "},"Û":{"ha":1019,"x_min":46,"x_max":1108,"o":"m 540 1296 l 821 1296 l 994 1031 l 713 1031 l 654 1142 l 549 1031 l 257 1031 l 540 1296 m 429 -21 q 219 24 306 -21 q 90 146 133 68 q 46 326 46 224 q 58 438 46 379 l 172 971 l 501 971 l 390 447 q 382 378 382 408 q 408 306 382 329 q 494 282 433 282 q 608 324 567 282 q 667 447 650 365 l 778 971 l 1108 971 l 994 438 q 429 -21 897 -21 z "},"Ü":{"ha":1019,"x_min":46,"x_max":1108,"o":"m 467 1044 q 397 1072 425 1044 q 368 1142 368 1100 q 390 1213 368 1179 q 448 1267 413 1247 q 518 1288 483 1288 q 588 1260 561 1288 q 615 1192 615 1233 q 594 1119 615 1153 q 538 1065 572 1085 q 467 1044 504 1044 m 793 1044 q 722 1072 750 1044 q 693 1140 693 1099 q 715 1213 693 1179 q 772 1267 738 1247 q 844 1288 807 1288 q 914 1260 888 1288 q 940 1192 940 1233 q 919 1119 940 1153 q 863 1065 897 1085 q 793 1044 829 1044 m 429 -21 q 219 24 306 -21 q 90 146 133 68 q 46 326 46 224 q 58 438 46 379 l 172 971 l 501 971 l 390 447 q 382 378 382 408 q 408 306 382 329 q 494 282 433 282 q 608 324 567 282 q 667 447 650 365 l 778 971 l 1108 971 l 994 438 q 429 -21 897 -21 z "},"Ù":{"ha":1019,"x_min":46,"x_max":1108,"o":"m 421 1282 l 722 1282 l 764 1031 l 500 1031 l 421 1282 m 429 -21 q 219 24 306 -21 q 90 146 133 68 q 46 326 46 224 q 58 438 46 379 l 172 971 l 501 971 l 390 447 q 382 378 382 408 q 408 306 382 329 q 494 282 433 282 q 608 324 567 282 q 667 447 650 365 l 778 971 l 1108 971 l 994 438 q 429 -21 897 -21 z "},"V":{"ha":1131,"x_min":151,"x_max":1240,"o":"m 151 971 l 489 971 l 574 426 l 889 971 l 1240 971 l 646 0 l 335 0 l 151 971 z "},"W":{"ha":1372,"x_min":151,"x_max":1482,"o":"m 151 971 l 493 971 l 506 532 l 707 971 l 940 971 l 942 531 l 1140 971 l 1482 971 l 1028 0 l 736 0 l 711 442 l 500 0 l 194 0 l 151 971 z "},"X":{"ha":1119,"x_min":-54,"x_max":1222,"o":"m 400 490 l 160 971 l 535 971 l 644 753 l 846 971 l 1222 971 l 776 490 l 1024 0 l 647 0 l 533 226 l 322 0 l -54 0 l 400 490 z "},"Y":{"ha":1088,"x_min":151,"x_max":1197,"o":"m 375 371 l 151 971 l 490 971 l 590 664 l 835 971 l 1197 971 l 704 371 l 626 0 l 297 0 l 375 371 z "},"Ý":{"ha":1088,"x_min":151,"x_max":1197,"o":"m 676 1282 l 978 1282 l 793 1031 l 529 1031 l 676 1282 m 375 371 l 151 971 l 490 971 l 590 664 l 835 971 l 1197 971 l 704 371 l 626 0 l 297 0 l 375 371 z "},"Z":{"ha":850,"x_min":-54,"x_max":925,"o":"m -10 211 l 464 694 l 101 694 l 160 971 l 925 971 l 881 758 l 408 276 l 813 276 l 754 0 l -54 0 l -10 211 z "},"a":{"ha":929,"x_min":7,"x_max":954,"o":"m 296 -21 q 85 51 164 -21 q 7 246 7 124 q 17 333 7 290 q 165 591 51 494 q 447 688 278 688 q 554 670 506 688 q 632 625 603 653 l 642 667 l 954 667 l 813 0 l 511 0 l 522 56 q 417 0 478 21 q 296 -21 356 -21 m 433 221 q 503 238 469 221 q 560 283 538 254 l 581 383 q 544 429 571 413 q 482 446 518 446 q 389 417 426 446 q 339 332 351 388 q 335 294 335 311 q 358 239 335 257 q 433 221 382 221 z "},"á":{"ha":929,"x_min":7,"x_max":954,"o":"m 567 969 l 868 969 l 683 718 l 419 718 l 567 969 m 296 -21 q 85 51 164 -21 q 7 246 7 124 q 17 333 7 290 q 165 591 51 494 q 447 688 278 688 q 554 670 506 688 q 632 625 603 653 l 642 667 l 954 667 l 813 0 l 511 0 l 522 56 q 417 0 478 21 q 296 -21 356 -21 m 433 221 q 503 238 469 221 q 560 283 538 254 l 581 383 q 544 429 571 413 q 482 446 518 446 q 389 417 426 446 q 339 332 351 388 q 335 294 335 311 q 358 239 335 257 q 433 221 382 221 z "},"â":{"ha":929,"x_min":7,"x_max":954,"o":"m 482 983 l 763 983 l 936 718 l 654 718 l 596 829 l 490 718 l 199 718 l 482 983 m 296 -21 q 85 51 164 -21 q 7 246 7 124 q 17 333 7 290 q 165 591 51 494 q 447 688 278 688 q 554 670 506 688 q 632 625 603 653 l 642 667 l 954 667 l 813 0 l 511 0 l 522 56 q 417 0 478 21 q 296 -21 356 -21 m 433 221 q 503 238 469 221 q 560 283 538 254 l 581 383 q 544 429 571 413 q 482 446 518 446 q 389 417 426 446 q 339 332 351 388 q 335 294 335 311 q 358 239 335 257 q 433 221 382 221 z "},"ä":{"ha":929,"x_min":7,"x_max":954,"o":"m 404 718 q 334 746 363 718 q 306 815 306 774 q 328 887 306 853 q 385 941 350 921 q 456 961 421 961 q 526 934 499 961 q 553 865 553 907 q 531 792 553 826 q 476 738 510 758 q 404 718 442 718 m 731 718 q 659 745 688 718 q 631 814 631 772 q 653 887 631 853 q 710 941 675 921 q 782 961 744 961 q 851 934 825 961 q 878 865 878 907 q 856 792 878 826 q 801 738 835 758 q 731 718 767 718 m 296 -21 q 85 51 164 -21 q 7 246 7 124 q 17 333 7 290 q 165 591 51 494 q 447 688 278 688 q 554 670 506 688 q 632 625 603 653 l 642 667 l 954 667 l 813 0 l 511 0 l 522 56 q 417 0 478 21 q 296 -21 356 -21 m 433 221 q 503 238 469 221 q 560 283 538 254 l 581 383 q 544 429 571 413 q 482 446 518 446 q 389 417 426 446 q 339 332 351 388 q 335 294 335 311 q 358 239 335 257 q 433 221 382 221 z "},"à":{"ha":929,"x_min":7,"x_max":954,"o":"m 408 969 l 710 969 l 751 718 l 488 718 l 408 969 m 296 -21 q 85 51 164 -21 q 7 246 7 124 q 17 333 7 290 q 165 591 51 494 q 447 688 278 688 q 554 670 506 688 q 632 625 603 653 l 642 667 l 954 667 l 813 0 l 511 0 l 522 56 q 417 0 478 21 q 296 -21 356 -21 m 433 221 q 503 238 469 221 q 560 283 538 254 l 581 383 q 544 429 571 413 q 482 446 518 446 q 389 417 426 446 q 339 332 351 388 q 335 294 335 311 q 358 239 335 257 q 433 221 382 221 z "},"å":{"ha":929,"x_min":7,"x_max":954,"o":"m 564 718 q 435 765 485 718 q 386 886 386 813 q 392 932 386 911 q 442 1040 403 992 q 537 1117 481 1089 q 656 1146 593 1146 q 784 1099 735 1146 q 833 976 833 1051 q 829 932 833 956 q 735 779 810 840 q 564 718 661 718 m 597 875 q 647 897 625 875 q 668 947 668 918 q 622 989 668 989 q 573 967 594 989 q 551 917 551 946 q 563 887 551 899 q 597 875 575 875 m 296 -21 q 85 51 164 -21 q 7 246 7 124 q 17 333 7 290 q 165 591 51 494 q 447 688 278 688 q 554 670 506 688 q 632 625 603 653 l 642 667 l 954 667 l 813 0 l 511 0 l 522 56 q 417 0 478 21 q 296 -21 356 -21 m 433 221 q 503 238 469 221 q 560 283 538 254 l 581 383 q 544 429 571 413 q 482 446 518 446 q 389 417 426 446 q 339 332 351 388 q 335 294 335 311 q 358 239 335 257 q 433 221 382 221 z "},"ã":{"ha":929,"x_min":7,"x_max":954,"o":"m 732 718 q 665 727 697 718 q 589 754 632 736 q 519 779 546 771 q 464 788 493 788 q 297 719 374 788 l 342 932 q 507 988 403 988 q 567 979 538 988 q 644 953 597 971 q 715 927 685 936 q 775 918 744 918 q 940 986 864 918 l 896 774 q 732 718 835 718 m 296 -21 q 85 51 164 -21 q 7 246 7 124 q 17 333 7 290 q 165 591 51 494 q 447 688 278 688 q 554 670 506 688 q 632 625 603 653 l 642 667 l 954 667 l 813 0 l 511 0 l 522 56 q 417 0 478 21 q 296 -21 356 -21 m 433 221 q 503 238 469 221 q 560 283 538 254 l 581 383 q 544 429 571 413 q 482 446 518 446 q 389 417 426 446 q 339 332 351 388 q 335 294 335 311 q 358 239 335 257 q 433 221 382 221 z "},"æ":{"ha":1319,"x_min":-17,"x_max":1304,"o":"m 239 -21 q 51 24 118 -21 q -17 154 -17 68 q -11 206 -17 182 q 99 376 13 318 q 324 435 185 435 q 418 424 368 435 q 501 400 468 414 l 503 411 q 469 468 511 447 q 353 489 428 489 q 122 439 233 489 l 164 638 q 293 674 215 660 q 461 688 371 688 q 605 669 544 688 q 713 617 665 651 q 838 668 768 649 q 979 688 908 688 q 1221 615 1138 688 q 1304 421 1304 542 q 1294 339 1304 388 l 1276 249 l 782 249 q 947 176 807 176 q 1087 187 1013 176 q 1215 217 1161 197 l 1175 29 q 1035 -7 1114 7 q 872 -21 957 -21 q 710 3 781 -21 q 597 72 639 28 q 435 3 521 28 q 239 -21 350 -21 m 1018 419 q 996 470 1017 451 q 931 489 975 489 q 818 419 849 489 l 1018 419 m 350 151 q 408 163 379 151 q 457 190 438 174 l 465 235 q 372 261 426 261 q 319 242 340 261 q 297 193 297 224 q 310 163 297 174 q 350 151 324 151 z "},"b":{"ha":936,"x_min":-26,"x_max":921,"o":"m 479 -21 q 367 0 419 -21 q 286 56 315 21 l 275 0 l -26 0 l 192 1026 l 504 1026 l 418 625 q 515 670 457 653 q 631 688 572 688 q 844 616 768 688 q 921 422 921 544 q 911 333 921 378 q 828 147 889 228 q 677 23 767 67 q 479 -21 588 -21 m 444 221 q 538 249 500 221 q 586 332 575 276 q 590 369 590 353 q 567 427 590 408 q 493 446 543 446 q 423 429 457 446 q 367 383 389 413 l 346 283 q 382 238 356 254 q 444 221 408 221 z "},"c":{"ha":749,"x_min":7,"x_max":778,"o":"m 344 -21 q 101 49 194 -21 q 7 250 7 119 q 17 333 7 293 q 180 597 53 506 q 496 688 307 688 q 659 672 582 688 q 778 626 736 656 l 728 388 q 638 435 692 418 q 525 451 585 451 q 389 411 442 451 q 336 296 336 371 q 368 235 336 254 q 474 215 400 215 q 595 233 532 215 q 713 282 658 250 l 661 43 q 520 -3 604 14 q 344 -21 436 -21 z "},"ç":{"ha":749,"x_min":7,"x_max":778,"o":"m 264 -344 q 104 -322 158 -344 l 132 -207 q 211 -229 167 -229 q 276 -209 254 -229 q 297 -160 297 -189 q 190 -106 297 -106 l 239 -10 q 69 78 132 11 q 7 250 7 144 q 17 333 7 293 q 180 597 53 506 q 496 688 307 688 q 659 672 582 688 q 778 626 736 656 l 728 388 q 638 435 692 418 q 525 451 585 451 q 389 411 442 451 q 336 296 336 371 q 368 235 336 254 q 474 215 400 215 q 595 233 532 215 q 713 282 658 250 l 661 43 q 456 -14 582 1 l 422 -68 q 501 -100 472 -75 q 529 -164 529 -125 q 526 -190 529 -181 q 448 -301 513 -257 q 264 -344 383 -344 z "},"d":{"ha":936,"x_min":6,"x_max":1031,"o":"m 296 -21 q 82 49 158 -21 q 6 240 6 118 q 17 333 6 281 q 163 592 51 496 q 447 688 275 688 q 554 670 506 688 q 632 625 603 653 l 718 1026 l 1031 1026 l 813 0 l 511 0 l 522 56 q 417 0 478 21 q 296 -21 356 -21 m 433 221 q 503 238 469 221 q 560 283 538 254 l 581 383 q 544 429 571 413 q 482 446 518 446 q 389 417 426 446 q 339 332 351 388 q 335 293 335 311 q 358 238 335 256 q 433 221 381 221 z "},"ð":{"ha":897,"x_min":4,"x_max":949,"o":"m 353 -21 q 91 49 178 -21 q 4 239 4 119 q 14 322 4 271 q 163 559 47 478 q 436 640 279 640 q 538 627 489 640 q 613 592 586 614 q 549 742 617 701 l 379 656 l 396 736 l 454 767 l 440 767 q 236 725 319 767 l 288 961 q 497 992 376 992 q 761 924 654 992 l 949 1019 l 931 939 l 815 879 q 915 604 915 776 q 899 458 915 538 q 792 210 869 318 q 601 40 715 101 q 353 -21 488 -21 m 415 215 q 489 242 458 215 q 529 314 519 269 q 532 342 532 333 q 513 394 532 376 q 458 413 494 413 q 383 387 413 413 q 343 314 353 361 q 339 283 339 297 q 415 215 339 215 z "},"e":{"ha":833,"x_min":7,"x_max":818,"o":"m 375 -21 q 107 51 207 -21 q 7 254 7 124 q 15 331 7 292 q 172 592 51 497 q 493 688 292 688 q 735 615 651 688 q 818 421 818 542 q 808 339 818 388 l 790 249 l 296 249 q 344 194 308 213 q 461 176 381 176 q 601 187 526 176 q 729 217 675 197 l 689 29 q 545 -7 629 7 q 375 -21 461 -21 m 532 419 q 510 470 531 451 q 444 489 489 489 q 332 419 363 489 l 532 419 z "},"é":{"ha":833,"x_min":7,"x_max":818,"o":"m 478 969 l 779 969 l 594 718 l 331 718 l 478 969 m 375 -21 q 107 51 207 -21 q 7 254 7 124 q 15 331 7 292 q 172 592 51 497 q 493 688 292 688 q 735 615 651 688 q 818 421 818 542 q 808 339 818 388 l 790 249 l 296 249 q 344 194 308 213 q 461 176 381 176 q 601 187 526 176 q 729 217 675 197 l 689 29 q 545 -7 629 7 q 375 -21 461 -21 m 532 419 q 510 470 531 451 q 444 489 489 489 q 332 419 363 489 l 532 419 z "},"ê":{"ha":833,"x_min":7,"x_max":864,"o":"m 410 983 l 690 983 l 864 718 l 582 718 l 524 829 l 418 718 l 126 718 l 410 983 m 375 -21 q 107 51 207 -21 q 7 254 7 124 q 15 331 7 292 q 172 592 51 497 q 493 688 292 688 q 735 615 651 688 q 818 421 818 542 q 808 339 818 388 l 790 249 l 296 249 q 344 194 308 213 q 461 176 381 176 q 601 187 526 176 q 729 217 675 197 l 689 29 q 545 -7 629 7 q 375 -21 461 -21 m 532 419 q 510 470 531 451 q 444 489 489 489 q 332 419 363 489 l 532 419 z "},"ë":{"ha":833,"x_min":7,"x_max":818,"o":"m 336 718 q 266 746 294 718 q 238 815 238 774 q 260 887 238 853 q 317 941 282 921 q 388 961 353 961 q 458 934 431 961 q 485 865 485 907 q 463 792 485 826 q 408 738 442 758 q 336 718 374 718 m 663 718 q 591 745 619 718 q 563 814 563 772 q 585 887 563 853 q 642 941 607 921 q 714 961 676 961 q 783 934 757 961 q 810 865 810 907 q 788 792 810 826 q 733 738 767 758 q 663 718 699 718 m 375 -21 q 107 51 207 -21 q 7 254 7 124 q 15 331 7 292 q 172 592 51 497 q 493 688 292 688 q 735 615 651 688 q 818 421 818 542 q 808 339 818 388 l 790 249 l 296 249 q 344 194 308 213 q 461 176 381 176 q 601 187 526 176 q 729 217 675 197 l 689 29 q 545 -7 629 7 q 375 -21 461 -21 m 532 419 q 510 470 531 451 q 444 489 489 489 q 332 419 363 489 l 532 419 z "},"è":{"ha":833,"x_min":7,"x_max":818,"o":"m 274 969 l 575 969 l 617 718 l 353 718 l 274 969 m 375 -21 q 107 51 207 -21 q 7 254 7 124 q 15 331 7 292 q 172 592 51 497 q 493 688 292 688 q 735 615 651 688 q 818 421 818 542 q 808 339 818 388 l 790 249 l 296 249 q 344 194 308 213 q 461 176 381 176 q 601 187 526 176 q 729 217 675 197 l 689 29 q 545 -7 629 7 q 375 -21 461 -21 m 532 419 q 510 470 531 451 q 444 489 489 489 q 332 419 363 489 l 532 419 z "},"f":{"ha":547,"x_min":4,"x_max":719,"o":"m 101 461 l 15 461 l 60 667 l 144 667 l 156 718 q 292 954 189 875 q 575 1033 396 1033 q 719 1004 665 1033 l 667 756 q 578 779 626 779 q 495 759 518 779 q 463 690 472 739 l 457 667 l 607 667 l 563 461 l 414 461 l 317 0 l 4 0 l 101 461 z "},"g":{"ha":936,"x_min":7,"x_max":954,"o":"m 278 -319 q 144 -307 211 -319 q 32 -272 78 -294 l 74 -74 q 319 -121 175 -121 q 500 4 472 -121 l 508 42 q 412 -3 469 14 q 296 -21 354 -21 q 84 51 161 -21 q 7 244 7 124 q 17 333 7 290 q 163 592 51 497 q 447 688 275 688 q 559 667 507 688 q 640 611 611 646 l 653 667 l 954 667 l 824 53 q 651 -222 786 -124 q 278 -319 517 -319 m 433 221 q 503 238 469 221 q 560 283 538 254 l 581 383 q 544 429 571 413 q 482 446 518 446 q 389 418 426 446 q 340 335 351 390 q 335 293 335 304 q 358 238 335 256 q 433 221 382 221 z "},"h":{"ha":886,"x_min":-26,"x_max":865,"o":"m 192 1026 l 504 1026 l 417 615 q 635 688 522 688 q 808 635 750 688 q 865 490 865 583 q 857 413 865 454 l 769 0 l 457 0 l 535 367 q 538 396 538 389 q 483 446 538 446 q 367 383 414 446 l 286 0 l -26 0 l 192 1026 z "},"i":{"ha":419,"x_min":-21,"x_max":488,"o":"m 289 728 q 193 762 229 728 q 157 850 157 796 q 185 947 157 901 q 258 1018 213 992 q 356 1044 304 1044 q 451 1009 414 1044 q 488 919 488 974 q 483 886 488 903 q 413 773 469 818 q 289 728 357 728 m 121 667 l 433 667 l 292 0 l -21 0 l 121 667 z "},"ı":{"ha":410,"x_min":-26,"x_max":428,"o":"m 115 667 l 428 667 l 286 0 l -26 0 l 115 667 z "},"í":{"ha":410,"x_min":-26,"x_max":597,"o":"m 296 969 l 597 969 l 413 718 l 149 718 l 296 969 m 115 667 l 428 667 l 286 0 l -26 0 l 115 667 z "},"î":{"ha":410,"x_min":-87,"x_max":650,"o":"m 196 983 l 476 983 l 650 718 l 368 718 l 310 829 l 204 718 l -87 718 l 196 983 m 115 667 l 428 667 l 286 0 l -26 0 l 115 667 z "},"ï":{"ha":410,"x_min":-26,"x_max":593,"o":"m 119 718 q 49 746 78 718 q 21 815 21 774 q 43 887 21 853 q 101 941 65 921 q 171 961 136 961 q 241 934 214 961 q 268 865 268 907 q 247 792 268 826 q 191 738 225 758 q 119 718 157 718 m 446 718 q 374 745 403 718 q 346 814 346 772 q 368 887 346 853 q 425 941 390 921 q 497 961 460 961 q 567 934 540 961 q 593 865 593 907 q 572 792 593 826 q 516 738 550 758 q 446 718 482 718 m 115 667 l 428 667 l 286 0 l -26 0 l 115 667 z "},"ì":{"ha":410,"x_min":-26,"x_max":428,"o":"m 82 969 l 383 969 l 425 718 l 161 718 l 82 969 m 115 667 l 428 667 l 286 0 l -26 0 l 115 667 z "},"j":{"ha":417,"x_min":-275,"x_max":485,"o":"m 286 728 q 190 762 226 728 q 154 850 154 796 q 182 947 154 901 q 256 1018 210 992 q 353 1044 301 1044 q 448 1009 411 1044 q 485 919 485 974 q 481 886 485 903 q 410 773 467 818 q 286 728 354 728 m -131 -321 q -275 -292 -221 -321 l -222 -43 q -124 -67 -182 -67 q -57 -46 -85 -67 q -21 18 -29 -25 l 118 667 l 431 667 l 283 -21 q 144 -246 251 -171 q -131 -321 38 -321 z "},"k":{"ha":950,"x_min":-26,"x_max":958,"o":"m 192 1026 l 504 1026 l 378 429 l 603 667 l 958 667 l 657 349 l 854 0 l 499 0 l 344 272 l 286 0 l -26 0 l 192 1026 z "},"l":{"ha":410,"x_min":-26,"x_max":504,"o":"m 192 1026 l 504 1026 l 286 0 l -26 0 l 192 1026 z "},"m":{"ha":1229,"x_min":-26,"x_max":1213,"o":"m 115 667 l 403 667 l 390 611 q 606 688 485 688 q 715 669 676 688 q 778 613 754 650 q 887 667 826 647 q 1007 688 947 688 q 1165 642 1117 688 q 1213 513 1213 597 q 1200 413 1213 467 l 1113 0 l 814 0 l 892 367 q 896 401 896 388 q 885 435 896 424 q 847 446 874 446 q 792 432 817 446 l 700 0 l 401 0 l 482 382 q 485 407 485 401 q 442 446 485 446 q 356 393 394 446 l 272 0 l -26 0 l 115 667 z "},"n":{"ha":886,"x_min":-26,"x_max":864,"o":"m 115 667 l 417 667 l 404 611 q 513 667 453 647 q 635 688 574 688 q 806 628 749 688 q 864 476 864 568 q 857 413 864 447 l 769 0 l 457 0 l 535 367 q 538 396 538 389 q 483 446 538 446 q 367 383 414 446 l 286 0 l -26 0 l 115 667 z "},"ñ":{"ha":886,"x_min":-26,"x_max":864,"o":"m 635 718 q 567 727 600 718 q 492 754 535 736 q 422 779 449 771 q 367 788 396 788 q 200 719 276 788 l 244 932 q 410 988 306 988 q 470 979 440 988 q 547 953 500 971 q 617 927 588 936 q 678 918 647 918 q 843 986 767 918 l 799 774 q 635 718 738 718 m 115 667 l 417 667 l 404 611 q 513 667 453 647 q 635 688 574 688 q 806 628 749 688 q 864 476 864 568 q 857 413 864 447 l 769 0 l 457 0 l 535 367 q 538 396 538 389 q 483 446 538 446 q 367 383 414 446 l 286 0 l -26 0 l 115 667 z "},"o":{"ha":906,"x_min":8,"x_max":888,"o":"m 372 -21 q 175 15 257 -21 q 51 114 93 50 q 8 260 8 178 q 17 333 8 296 q 104 516 38 436 q 278 642 171 596 q 524 688 385 688 q 721 651 639 688 q 845 551 803 615 q 888 406 888 488 q 881 333 888 365 q 792 151 858 231 q 618 25 725 71 q 372 -21 511 -21 m 424 221 q 524 263 483 221 q 565 369 565 304 q 472 446 565 446 q 372 404 413 446 q 332 297 332 363 q 424 221 332 221 z "},"ó":{"ha":906,"x_min":8,"x_max":888,"o":"m 507 969 l 808 969 l 624 718 l 360 718 l 507 969 m 372 -21 q 175 15 257 -21 q 51 114 93 50 q 8 260 8 178 q 17 333 8 296 q 104 516 38 436 q 278 642 171 596 q 524 688 385 688 q 721 651 639 688 q 845 551 803 615 q 888 406 888 488 q 881 333 888 365 q 792 151 858 231 q 618 25 725 71 q 372 -21 511 -21 m 424 221 q 524 263 483 221 q 565 369 565 304 q 472 446 565 446 q 372 404 413 446 q 332 297 332 363 q 424 221 332 221 z "},"ô":{"ha":906,"x_min":8,"x_max":888,"o":"m 417 983 l 697 983 l 871 718 l 589 718 l 531 829 l 425 718 l 133 718 l 417 983 m 372 -21 q 175 15 257 -21 q 51 114 93 50 q 8 260 8 178 q 17 333 8 296 q 104 516 38 436 q 278 642 171 596 q 524 688 385 688 q 721 651 639 688 q 845 551 803 615 q 888 406 888 488 q 881 333 888 365 q 792 151 858 231 q 618 25 725 71 q 372 -21 511 -21 m 424 221 q 524 263 483 221 q 565 369 565 304 q 472 446 565 446 q 372 404 413 446 q 332 297 332 363 q 424 221 332 221 z "},"ö":{"ha":906,"x_min":8,"x_max":888,"o":"m 340 718 q 270 746 299 718 q 242 815 242 774 q 264 887 242 853 q 322 941 286 921 q 392 961 357 961 q 462 934 435 961 q 489 865 489 907 q 467 792 489 826 q 412 738 446 758 q 340 718 378 718 m 667 718 q 595 745 624 718 q 567 814 567 772 q 589 887 567 853 q 646 941 611 921 q 718 961 681 961 q 788 934 761 961 q 814 865 814 907 q 792 792 814 826 q 737 738 771 758 q 667 718 703 718 m 372 -21 q 175 15 257 -21 q 51 114 93 50 q 8 260 8 178 q 17 333 8 296 q 104 516 38 436 q 278 642 171 596 q 524 688 385 688 q 721 651 639 688 q 845 551 803 615 q 888 406 888 488 q 881 333 888 365 q 792 151 858 231 q 618 25 725 71 q 372 -21 511 -21 m 424 221 q 524 263 483 221 q 565 369 565 304 q 472 446 565 446 q 372 404 413 446 q 332 297 332 363 q 424 221 332 221 z "},"ò":{"ha":906,"x_min":8,"x_max":888,"o":"m 299 969 l 600 969 l 642 718 l 378 718 l 299 969 m 372 -21 q 175 15 257 -21 q 51 114 93 50 q 8 260 8 178 q 17 333 8 296 q 104 516 38 436 q 278 642 171 596 q 524 688 385 688 q 721 651 639 688 q 845 551 803 615 q 888 406 888 488 q 881 333 888 365 q 792 151 858 231 q 618 25 725 71 q 372 -21 511 -21 m 424 221 q 524 263 483 221 q 565 369 565 304 q 472 446 565 446 q 372 404 413 446 q 332 297 332 363 q 424 221 332 221 z "},"ø":{"ha":906,"x_min":10,"x_max":888,"o":"m 183 14 q 55 114 100 49 q 10 264 10 179 q 17 333 10 304 q 107 515 38 435 q 285 642 176 596 q 524 688 393 688 q 594 683 561 688 l 658 786 l 793 786 l 710 651 q 840 549 793 615 q 888 397 888 482 q 881 333 888 371 q 789 151 858 232 q 611 25 719 71 q 372 -21 503 -21 q 297 -17 333 -21 l 235 -119 l 101 -119 l 183 14 m 454 454 q 371 415 406 447 q 326 333 336 383 q 321 293 321 313 q 329 251 321 268 l 454 454 m 439 211 q 536 262 497 218 q 575 369 575 306 q 564 415 575 396 l 439 211 z "},"õ":{"ha":906,"x_min":8,"x_max":888,"o":"m 644 718 q 577 727 610 718 q 501 754 544 736 q 432 779 458 771 q 376 788 406 788 q 210 719 286 788 l 254 932 q 419 988 315 988 q 480 979 450 988 q 557 953 510 971 q 627 927 597 936 q 688 918 657 918 q 853 986 776 918 l 808 774 q 644 718 747 718 m 372 -21 q 175 15 257 -21 q 51 114 93 50 q 8 260 8 178 q 17 333 8 296 q 104 516 38 436 q 278 642 171 596 q 524 688 385 688 q 721 651 639 688 q 845 551 803 615 q 888 406 888 488 q 881 333 888 365 q 792 151 858 231 q 618 25 725 71 q 372 -21 511 -21 m 424 221 q 524 263 483 221 q 565 369 565 304 q 472 446 565 446 q 372 404 413 446 q 332 297 332 363 q 424 221 332 221 z "},"œ":{"ha":1521,"x_min":8,"x_max":1506,"o":"m 1181 688 q 1422 615 1339 688 q 1506 421 1506 542 q 1496 339 1506 388 l 1478 249 l 983 249 q 1032 194 996 213 q 1149 176 1068 176 q 1288 187 1214 176 q 1417 217 1363 197 l 1376 29 q 1233 -7 1317 7 q 1063 -21 1149 -21 q 872 10 954 -21 q 743 101 789 42 q 581 11 675 43 q 372 -21 488 -21 q 175 15 257 -21 q 51 114 93 50 q 8 260 8 178 q 17 333 8 296 q 104 516 38 436 q 278 642 171 596 q 524 688 385 688 q 708 657 629 688 q 832 571 788 626 q 1181 688 960 688 m 1219 419 q 1197 470 1218 451 q 1132 489 1176 489 q 1019 419 1050 489 l 1219 419 m 565 369 q 472 446 565 446 q 372 404 413 446 q 332 297 332 363 q 424 221 332 221 q 524 263 483 221 q 565 369 565 304 z "},"p":{"ha":936,"x_min":-90,"x_max":919,"o":"m 115 667 l 417 667 l 404 611 q 510 667 449 646 q 631 688 571 688 q 840 614 761 688 q 919 417 919 540 q 911 333 919 378 q 828 149 889 229 q 676 24 767 68 q 479 -21 586 -21 q 372 -3 421 -21 q 294 42 324 14 l 221 -304 l -90 -304 l 115 667 m 444 221 q 538 250 500 221 q 588 335 575 279 q 590 365 590 346 q 565 426 590 406 q 493 446 540 446 q 423 429 457 446 q 367 383 389 413 l 346 283 q 382 238 356 254 q 444 221 408 221 z "},"þ":{"ha":936,"x_min":-90,"x_max":921,"o":"m 179 971 l 492 971 l 418 625 q 515 670 457 653 q 631 688 572 688 q 843 615 765 688 q 921 419 921 543 q 911 333 921 376 q 766 74 875 169 q 479 -21 657 -21 q 372 -3 421 -21 q 294 42 324 14 l 221 -304 l -90 -304 l 179 971 m 444 221 q 538 250 500 221 q 588 335 575 279 q 592 369 592 354 q 493 446 592 446 q 423 429 457 446 q 367 383 389 413 l 346 283 q 382 238 356 254 q 444 221 408 221 z "},"q":{"ha":936,"x_min":7,"x_max":954,"o":"m 508 42 q 412 -3 469 14 q 296 -21 354 -21 q 144 13 210 -21 q 43 108 79 46 q 7 250 7 169 q 17 333 7 293 q 99 519 39 439 q 249 644 160 600 q 447 688 339 688 q 559 667 507 688 q 640 611 611 646 l 653 667 l 954 667 l 747 -304 l 435 -304 l 508 42 m 433 221 q 503 238 469 221 q 560 283 538 254 l 581 383 q 544 429 571 413 q 482 446 518 446 q 389 418 426 446 q 340 335 351 390 q 336 296 336 314 q 360 240 336 258 q 433 221 383 221 z "},"r":{"ha":592,"x_min":-26,"x_max":669,"o":"m 115 667 l 417 667 l 403 607 q 522 665 450 643 q 669 688 593 688 l 618 446 q 465 424 536 446 q 363 364 394 403 l 286 0 l -26 0 l 115 667 z "},"s":{"ha":733,"x_min":-36,"x_max":724,"o":"m 282 -21 q 104 -6 194 -21 q -36 39 14 10 l 10 250 q 140 193 60 217 q 286 169 219 169 q 335 172 319 169 q 350 186 350 175 q 340 196 350 192 q 306 204 329 200 q 224 225 257 214 q 80 297 124 257 q 36 401 36 336 q 43 458 36 424 q 171 631 67 575 q 436 688 275 688 q 599 671 511 688 q 724 628 686 654 l 678 417 q 570 467 642 446 q 439 489 499 489 q 392 485 411 489 q 372 474 374 481 q 388 459 371 465 q 440 446 404 453 l 501 431 q 646 365 604 401 q 688 268 688 328 q 679 201 688 239 q 559 38 657 97 q 282 -21 461 -21 z "},"ß":{"ha":938,"x_min":-33,"x_max":969,"o":"m 494 -21 q 402 -15 447 -21 q 331 4 357 -8 l 383 253 q 418 233 396 240 q 465 226 440 226 q 536 251 508 226 q 574 318 564 275 q 578 349 578 335 q 492 413 578 413 l 418 413 l 464 631 l 528 631 q 606 665 576 631 q 635 753 635 700 q 617 794 635 781 q 558 808 600 808 q 482 781 510 808 q 444 711 454 754 l 294 0 l -33 0 l 108 667 q 603 1033 186 1033 q 806 997 724 1033 q 929 899 889 960 q 969 767 969 838 q 964 715 969 738 q 828 518 935 583 q 892 451 871 488 q 913 367 913 415 q 904 299 913 336 q 765 63 872 147 q 494 -21 657 -21 z "},"t":{"ha":561,"x_min":15,"x_max":607,"o":"m 278 -21 q 109 32 165 -21 q 53 178 53 85 q 63 260 53 208 l 106 461 l 15 461 l 60 667 l 150 667 l 192 867 l 504 867 l 463 667 l 607 667 l 563 461 l 418 461 l 385 306 q 381 271 381 285 q 395 233 381 244 q 440 221 410 221 q 546 250 492 221 l 496 19 q 400 -11 450 -1 q 278 -21 350 -21 z "},"u":{"ha":886,"x_min":15,"x_max":904,"o":"m 242 -21 q 74 37 132 -21 q 15 190 15 94 q 24 268 15 229 l 108 667 l 421 667 l 343 307 q 339 274 339 289 q 353 233 339 246 q 399 221 367 221 q 510 283 465 221 l 592 667 l 904 667 l 763 0 l 461 0 l 472 56 q 363 -1 424 19 q 242 -21 303 -21 z "},"ú":{"ha":886,"x_min":15,"x_max":904,"o":"m 490 969 l 792 969 l 607 718 l 343 718 l 490 969 m 242 -21 q 74 37 132 -21 q 15 190 15 94 q 24 268 15 229 l 108 667 l 421 667 l 343 307 q 339 274 339 289 q 353 233 339 246 q 399 221 367 221 q 510 283 465 221 l 592 667 l 904 667 l 763 0 l 461 0 l 472 56 q 363 -1 424 19 q 242 -21 303 -21 z "},"û":{"ha":886,"x_min":15,"x_max":904,"o":"m 403 983 l 683 983 l 857 718 l 575 718 l 517 829 l 411 718 l 119 718 l 403 983 m 242 -21 q 74 37 132 -21 q 15 190 15 94 q 24 268 15 229 l 108 667 l 421 667 l 343 307 q 339 274 339 289 q 353 233 339 246 q 399 221 367 221 q 510 283 465 221 l 592 667 l 904 667 l 763 0 l 461 0 l 472 56 q 363 -1 424 19 q 242 -21 303 -21 z "},"ü":{"ha":886,"x_min":15,"x_max":904,"o":"m 325 718 q 255 746 283 718 q 226 815 226 774 q 249 887 226 853 q 306 941 271 921 q 376 961 342 961 q 447 934 419 961 q 474 865 474 907 q 452 792 474 826 q 397 738 431 758 q 325 718 363 718 m 651 718 q 580 745 608 718 q 551 814 551 772 q 574 887 551 853 q 631 941 596 921 q 703 961 665 961 q 772 934 746 961 q 799 865 799 907 q 777 792 799 826 q 722 738 756 758 q 651 718 688 718 m 242 -21 q 74 37 132 -21 q 15 190 15 94 q 24 268 15 229 l 108 667 l 421 667 l 343 307 q 339 274 339 289 q 353 233 339 246 q 399 221 367 221 q 510 283 465 221 l 592 667 l 904 667 l 763 0 l 461 0 l 472 56 q 363 -1 424 19 q 242 -21 303 -21 z "},"ù":{"ha":886,"x_min":15,"x_max":904,"o":"m 290 969 l 592 969 l 633 718 l 369 718 l 290 969 m 242 -21 q 74 37 132 -21 q 15 190 15 94 q 24 268 15 229 l 108 667 l 421 667 l 343 307 q 339 274 339 289 q 353 233 339 246 q 399 221 367 221 q 510 283 465 221 l 592 667 l 904 667 l 763 0 l 461 0 l 472 56 q 363 -1 424 19 q 242 -21 303 -21 z "},"v":{"ha":908,"x_min":88,"x_max":954,"o":"m 88 667 l 393 667 l 447 354 l 635 667 l 954 667 l 529 0 l 229 0 l 88 667 z "},"w":{"ha":1226,"x_min":88,"x_max":1272,"o":"m 88 667 l 400 667 l 413 354 l 558 667 l 801 667 l 814 354 l 960 667 l 1272 667 l 903 0 l 631 0 l 607 299 l 460 0 l 174 0 l 88 667 z "},"x":{"ha":972,"x_min":-54,"x_max":1001,"o":"m 307 343 l 104 667 l 460 667 l 529 556 l 646 667 l 1001 667 l 661 343 l 876 0 l 524 0 l 439 133 l 299 0 l -54 0 l 307 343 z "},"y":{"ha":915,"x_min":-4,"x_max":904,"o":"m 242 -319 q 108 -307 175 -319 q -4 -272 42 -294 l 38 -74 q 283 -121 139 -121 q 404 -89 363 -121 q 460 4 446 -57 l 476 71 q 367 15 428 35 q 246 -6 307 -6 q 78 52 136 -6 q 19 207 19 110 q 28 283 19 244 l 108 667 l 421 667 l 347 322 q 343 288 343 304 q 358 249 343 261 q 403 236 372 236 q 514 299 469 236 l 592 667 l 904 667 l 774 53 q 603 -226 733 -133 q 242 -319 472 -319 z "},"ý":{"ha":915,"x_min":-4,"x_max":904,"o":"m 536 969 l 838 969 l 653 718 l 389 718 l 536 969 m 242 -319 q 108 -307 175 -319 q -4 -272 42 -294 l 38 -74 q 283 -121 139 -121 q 404 -89 363 -121 q 460 4 446 -57 l 476 71 q 367 15 428 35 q 246 -6 307 -6 q 78 52 136 -6 q 19 207 19 110 q 28 283 19 244 l 108 667 l 421 667 l 347 322 q 343 288 343 304 q 358 249 343 261 q 403 236 372 236 q 514 299 469 236 l 592 667 l 904 667 l 774 53 q 603 -226 733 -133 q 242 -319 472 -319 z "},"ÿ":{"ha":915,"x_min":-4,"x_max":904,"o":"m 365 718 q 295 746 324 718 q 267 815 267 774 q 289 887 267 853 q 347 941 311 921 q 417 961 382 961 q 487 934 460 961 q 514 865 514 907 q 492 792 514 826 q 437 738 471 758 q 365 718 403 718 m 692 718 q 620 745 649 718 q 592 814 592 772 q 614 887 592 853 q 671 941 636 921 q 743 961 706 961 q 813 934 786 961 q 839 865 839 907 q 817 792 839 826 q 762 738 796 758 q 692 718 728 718 m 242 -319 q 108 -307 175 -319 q -4 -272 42 -294 l 38 -74 q 283 -121 139 -121 q 404 -89 363 -121 q 460 4 446 -57 l 476 71 q 367 15 428 35 q 246 -6 307 -6 q 78 52 136 -6 q 19 207 19 110 q 28 283 19 244 l 108 667 l 421 667 l 347 322 q 343 288 343 304 q 358 249 343 261 q 403 236 372 236 q 514 299 469 236 l 592 667 l 904 667 l 774 53 q 603 -226 733 -133 q 242 -319 472 -319 z "},"z":{"ha":757,"x_min":-54,"x_max":792,"o":"m -21 157 l 322 461 l 50 461 l 94 667 l 792 667 l 758 511 l 417 206 l 704 206 l 661 0 l -54 0 l -21 157 z "},"ª":{"ha":613,"x_min":79,"x_max":689,"o":"m 254 485 q 128 518 178 485 q 79 613 79 551 q 83 647 79 629 q 163 769 100 728 q 333 811 226 811 q 401 803 365 811 q 460 786 436 796 l 461 794 q 354 850 472 850 q 188 814 269 850 l 218 956 q 310 982 254 972 q 431 992 365 992 q 622 951 556 992 q 689 833 689 910 q 683 790 689 821 l 622 500 l 411 500 l 418 535 q 347 499 392 513 q 254 485 301 485 m 351 608 q 394 616 374 608 q 428 636 415 624 l 435 668 q 368 686 401 686 q 333 676 347 686 q 315 647 318 665 q 321 619 311 631 q 351 608 331 608 z "},"º":{"ha":661,"x_min":96,"x_max":726,"o":"m 358 485 q 164 539 232 485 q 96 683 96 593 q 101 738 96 711 q 222 921 125 850 q 465 992 318 992 q 660 938 593 992 q 726 794 726 885 q 721 738 726 764 q 601 555 697 625 q 358 485 506 485 m 394 657 q 466 688 438 657 q 494 765 494 718 q 429 819 494 819 q 357 790 386 819 q 328 713 328 760 q 394 657 328 657 z "},"⁄":{"ha":396,"x_min":-308,"x_max":760,"o":"m 440 992 l 760 992 l 10 -21 l -308 -21 l 440 992 z "},"½":{"ha":1164,"x_min":54,"x_max":1125,"o":"m 797 971 l 1117 971 l 374 0 l 54 0 l 797 971 m 196 754 l 92 690 l 133 886 l 267 971 l 465 971 l 368 514 l 144 514 l 196 754 m 651 107 q 822 201 768 165 q 881 263 875 236 q 872 288 883 281 q 831 296 861 296 q 696 250 760 296 l 733 425 q 828 458 767 446 q 944 471 889 471 q 1080 435 1035 471 q 1125 344 1125 400 q 1122 315 1125 335 q 1076 228 1111 264 q 961 146 1040 192 l 1099 146 l 1068 0 l 629 0 l 651 107 z "},"¼":{"ha":1128,"x_min":54,"x_max":1117,"o":"m 797 971 l 1117 971 l 374 0 l 54 0 l 797 971 m 196 754 l 92 690 l 133 886 l 267 971 l 465 971 l 368 514 l 144 514 l 196 754 m 763 68 l 572 68 l 600 200 l 835 457 l 1068 457 l 1017 211 l 1076 211 l 1046 68 l 986 68 l 972 0 l 749 0 l 763 68 m 869 211 l 889 307 l 793 211 l 869 211 z "},"¾":{"ha":1150,"x_min":58,"x_max":1147,"o":"m 254 500 q 143 508 197 500 q 58 532 89 517 l 86 664 q 207 632 144 632 q 285 665 279 632 q 274 688 289 682 q 218 694 260 694 l 161 694 l 182 793 l 236 793 q 286 800 269 793 q 306 822 303 807 q 254 853 314 853 q 125 817 189 853 l 154 951 q 249 975 189 965 q 360 985 308 985 q 503 953 451 985 q 556 867 556 922 q 540 802 556 835 q 492 743 524 769 q 526 675 526 718 q 453 549 526 597 q 254 500 381 500 m 828 971 l 1147 971 l 404 0 l 85 0 l 828 971 m 785 68 l 594 68 l 622 200 l 857 457 l 1090 457 l 1039 211 l 1099 211 l 1068 68 l 1008 68 l 994 0 l 771 0 l 785 68 m 892 211 l 911 307 l 815 211 l 892 211 z "},"¹":{"ha":328,"x_min":92,"x_max":465,"o":"m 196 754 l 92 690 l 133 886 l 267 971 l 465 971 l 368 514 l 144 514 l 196 754 z "},"²":{"ha":481,"x_min":54,"x_max":550,"o":"m 78 621 q 247 715 194 681 q 306 776 300 750 q 298 802 310 794 q 256 810 286 810 q 121 764 188 810 l 158 939 q 253 972 192 960 q 369 985 314 985 q 504 949 458 985 q 550 860 550 914 q 547 829 550 839 q 501 742 538 778 q 386 660 465 706 l 524 660 l 493 514 l 54 514 l 78 621 z "},"³":{"ha":483,"x_min":58,"x_max":556,"o":"m 254 500 q 143 508 197 500 q 58 532 89 517 l 86 664 q 207 632 144 632 q 285 665 279 632 q 274 688 289 682 q 218 694 260 694 l 161 694 l 182 793 l 236 793 q 286 800 269 793 q 306 822 303 807 q 254 853 314 853 q 125 817 189 853 l 154 951 q 249 975 189 965 q 360 985 308 985 q 503 953 451 985 q 556 867 556 922 q 540 802 556 835 q 492 743 524 769 q 526 675 526 718 q 453 549 526 597 q 254 500 381 500 z "},"⁴":{"ha":460,"x_min":42,"x_max":544,"o":"m 232 582 l 42 582 l 69 714 l 318 971 l 538 971 l 485 725 l 544 725 l 515 582 l 456 582 l 440 514 l 217 514 l 232 582 m 338 725 l 358 821 l 261 725 l 338 725 z "},"*":{"ha":624,"x_min":103,"x_max":685,"o":"m 117 568 l 238 693 l 103 744 l 207 903 l 315 861 l 339 971 l 546 971 l 522 861 l 650 904 l 685 744 l 531 694 l 599 569 l 415 464 l 358 575 l 256 463 l 117 568 z "},"\\":{"ha":757,"x_min":156,"x_max":661,"o":"m 156 992 l 475 992 l 661 0 l 342 0 l 156 992 z "},"·":{"ha":253,"x_min":31,"x_max":247,"o":"m 115 310 q 54 333 78 310 q 31 392 31 356 q 70 482 31 443 q 160 521 110 521 q 223 497 199 521 q 247 436 247 472 q 207 348 247 386 q 115 310 167 310 z "},"•":{"ha":358,"x_min":29,"x_max":353,"o":"m 158 256 q 65 290 101 256 q 29 379 29 325 q 57 475 29 431 q 130 546 85 519 q 225 572 175 572 q 318 538 283 572 q 353 447 353 503 q 325 352 353 396 q 253 282 297 308 q 158 256 208 256 z "},":":{"ha":336,"x_min":-26,"x_max":363,"o":"m 181 414 q 94 448 128 414 q 61 532 61 482 q 88 618 61 578 q 156 683 114 658 q 243 708 199 708 q 328 675 294 708 q 363 592 363 642 q 336 505 363 546 q 267 439 310 464 q 181 414 225 414 m 93 3 q 7 37 40 3 q -26 121 -26 71 q 0 207 -26 167 q 69 272 26 247 q 156 297 111 297 q 241 264 207 297 q 275 181 275 231 q 249 94 275 135 q 180 28 222 53 q 93 3 138 3 z "},",":{"ha":481,"x_min":-97,"x_max":404,"o":"m 82 94 l 404 94 l 186 -208 l -97 -208 l 82 94 z "},"…":{"ha":811,"x_min":-35,"x_max":739,"o":"m 50 0 q -11 24 13 0 q -35 83 -35 47 q -33 104 -35 97 q 15 180 -22 149 q 94 211 51 211 q 157 188 133 211 q 181 129 181 165 q 178 104 181 121 q 132 31 169 61 q 50 0 94 0 m 329 0 q 268 24 292 0 q 244 83 244 47 q 246 104 244 97 q 294 180 257 149 q 374 211 331 211 q 436 188 413 211 q 460 129 460 165 q 457 104 460 121 q 411 31 449 61 q 329 0 374 0 m 608 0 q 547 24 571 0 q 524 83 524 47 q 525 104 524 97 q 573 180 536 149 q 653 211 610 211 q 715 188 692 211 q 739 129 739 165 q 736 104 739 121 q 690 31 728 61 q 608 0 653 0 z "},"!":{"ha":364,"x_min":-29,"x_max":469,"o":"m 157 971 l 469 971 l 338 350 l 25 350 l 157 971 m 101 -21 q 7 14 43 -21 q -29 103 -29 49 q -25 138 -29 119 q 44 251 -11 206 q 169 296 100 296 q 265 262 228 296 q 301 172 301 228 q 272 77 301 122 q 197 6 243 32 q 101 -21 151 -21 z "},"¡":{"ha":364,"x_min":-96,"x_max":400,"o":"m 201 447 q 106 481 142 447 q 69 569 69 515 q 97 666 69 621 q 171 738 125 711 q 268 764 217 764 q 363 728 326 764 q 400 639 400 693 q 396 606 400 622 q 326 492 382 538 q 201 447 269 447 m 35 393 l 347 393 l 215 -228 l -96 -228 l 35 393 z "},"#":{"ha":1097,"x_min":-21,"x_max":1176,"o":"m 75 161 l -21 161 l 31 403 l 194 403 l 251 517 l 117 517 l 167 757 l 369 757 l 475 971 l 760 971 l 654 757 l 786 757 l 892 971 l 1176 971 l 1071 757 l 1161 757 l 1111 517 l 953 517 l 896 403 l 1025 403 l 974 161 l 776 161 l 697 0 l 413 0 l 492 161 l 360 161 l 281 0 l -4 0 l 75 161 m 611 403 l 668 517 l 536 517 l 479 403 l 611 403 z "},".":{"ha":253,"x_min":-35,"x_max":181,"o":"m 50 0 q -11 24 13 0 q -35 83 -35 47 q -33 104 -35 97 q 15 180 -22 149 q 94 211 51 211 q 157 188 133 211 q 181 129 181 165 q 178 104 181 121 q 132 31 169 61 q 50 0 94 0 z "},"?":{"ha":743,"x_min":83,"x_max":803,"o":"m 164 375 q 210 490 176 438 q 296 575 244 543 q 349 606 343 601 q 417 649 397 632 q 436 688 436 665 q 346 722 436 722 q 83 653 224 722 l 143 929 q 293 976 217 961 q 464 992 369 992 q 646 963 569 992 q 763 881 722 933 q 803 763 803 829 q 799 718 803 742 q 748 606 786 650 q 629 514 710 561 q 517 440 551 468 q 475 372 483 411 l 471 350 l 158 350 l 164 375 m 235 -21 q 140 14 176 -21 q 104 103 104 49 q 108 138 104 119 q 178 251 122 206 q 303 296 233 296 q 398 262 361 296 q 435 172 435 228 q 406 77 435 122 q 331 6 376 32 q 235 -21 285 -21 z "},"¿":{"ha":743,"x_min":-56,"x_max":665,"o":"m 447 447 q 352 481 389 447 q 315 571 315 515 q 344 666 315 621 q 418 738 372 711 q 514 764 464 764 q 609 729 572 764 q 646 640 646 694 q 642 606 646 625 q 572 492 628 538 q 447 447 517 447 m 285 -249 q 38 -189 131 -249 q -56 -25 -56 -129 q -50 25 -56 -8 q 3 138 -35 94 q 121 229 40 182 q 233 304 199 276 q 274 371 267 332 l 279 393 l 592 393 l 586 368 q 538 251 572 304 q 453 168 504 199 l 397 136 q 336 98 354 113 q 314 64 318 83 q 404 21 304 21 q 665 90 526 21 l 607 -186 q 456 -233 532 -218 q 285 -249 379 -249 z "},"\"":{"ha":531,"x_min":88,"x_max":640,"o":"m 151 971 l 376 971 l 313 669 l 88 669 l 151 971 m 415 971 l 640 971 l 576 669 l 351 669 l 415 971 z "},"'":{"ha":267,"x_min":88,"x_max":376,"o":"m 151 971 l 376 971 l 313 669 l 88 669 l 151 971 z "},";":{"ha":481,"x_min":-97,"x_max":478,"o":"m 296 414 q 210 448 243 414 q 176 532 176 482 q 203 618 176 578 q 272 683 229 658 q 358 708 314 708 q 444 675 410 708 q 478 592 478 642 q 451 505 478 546 q 383 439 425 464 q 296 414 340 414 m 82 94 l 404 94 l 186 -208 l -97 -208 l 82 94 z "},"/":{"ha":757,"x_min":-54,"x_max":871,"o":"m 551 992 l 871 992 l 265 0 l -54 0 l 551 992 z "},"_":{"ha":667,"x_min":-107,"x_max":571,"o":"m -54 0 l 571 0 l 517 -249 l -107 -249 l -54 0 z "},"{":{"ha":531,"x_min":-10,"x_max":681,"o":"m 161 -135 q 63 -104 99 -135 q 28 -12 28 -74 q 35 43 28 8 l 85 275 q 88 293 88 289 q 74 328 88 315 q 38 342 61 342 l -10 342 l 49 617 l 96 617 q 144 635 125 617 q 171 683 164 653 l 221 915 q 292 1049 239 1004 q 422 1093 346 1093 l 681 1093 l 621 817 l 572 817 q 536 806 549 817 q 519 774 524 796 l 489 628 q 442 535 476 572 q 357 481 408 497 l 357 478 q 431 372 431 450 q 425 331 431 361 l 394 185 q 392 169 392 174 q 429 142 392 142 l 478 142 l 419 -135 l 161 -135 z "},"}":{"ha":531,"x_min":-96,"x_max":593,"o":"m -39 142 l 10 142 q 46 152 33 142 q 64 185 58 163 l 94 331 q 226 478 119 443 l 226 481 q 153 585 153 508 q 158 628 153 597 l 189 774 q 190 788 190 779 q 153 817 190 817 l 104 817 l 164 1093 l 422 1093 q 519 1063 485 1093 q 554 969 554 1032 q 549 915 554 942 l 499 683 q 496 665 496 669 q 509 630 496 643 q 546 617 522 617 l 593 617 l 535 342 l 488 342 q 439 324 458 342 q 413 275 419 306 l 363 43 q 290 -90 343 -46 q 161 -135 238 -135 l -96 -135 l -39 142 z "},"[":{"ha":506,"x_min":-82,"x_max":656,"o":"m 178 1093 l 656 1093 l 596 817 l 447 817 l 304 143 l 453 143 l 394 -133 l -82 -133 l 178 1093 z "},"]":{"ha":506,"x_min":-96,"x_max":642,"o":"m -39 143 l 110 143 l 253 817 l 104 817 l 164 1093 l 642 1093 l 381 -133 l -96 -133 l -39 143 z "},"(":{"ha":560,"x_min":0,"x_max":701,"o":"m 103 -242 q 0 147 0 -75 q 25 375 0 254 q 364 992 100 735 l 701 992 q 360 375 433 721 q 336 160 336 260 q 440 -242 336 -57 l 103 -242 z "},")":{"ha":560,"x_min":-132,"x_max":568,"o":"m -132 -242 q 208 375 135 29 q 232 590 232 490 q 128 992 232 807 l 465 992 q 568 601 568 825 q 543 375 568 496 q 204 -242 465 13 l -132 -242 z "},"—":{"ha":1114,"x_min":10,"x_max":1135,"o":"m 63 550 l 1135 550 l 1082 301 l 10 301 l 63 550 z "},"–":{"ha":936,"x_min":10,"x_max":957,"o":"m 63 550 l 957 550 l 904 301 l 10 301 l 63 550 z "},"-":{"ha":569,"x_min":10,"x_max":590,"o":"m 63 550 l 590 550 l 538 301 l 10 301 l 63 550 z "},"­":{"ha":569,"x_min":10,"x_max":590,"o":"m 63 550 l 590 550 l 538 301 l 10 301 l 63 550 z "},"«":{"ha":1043,"x_min":36,"x_max":1085,"o":"m 36 425 l 47 483 l 474 817 l 624 643 l 374 447 l 540 251 l 321 92 l 36 425 m 497 425 l 508 483 l 935 817 l 1085 643 l 835 447 l 1001 251 l 782 92 l 497 425 z "},"»":{"ha":1043,"x_min":0,"x_max":1049,"o":"m 0 265 l 250 461 l 83 657 l 303 817 l 588 483 l 576 425 l 150 92 l 0 265 m 461 265 l 711 461 l 544 657 l 764 817 l 1049 483 l 1038 425 l 611 92 l 461 265 z "},"‹":{"ha":582,"x_min":36,"x_max":624,"o":"m 36 425 l 47 483 l 474 817 l 624 643 l 374 447 l 540 251 l 321 92 l 36 425 z "},"›":{"ha":582,"x_min":0,"x_max":588,"o":"m 0 265 l 250 461 l 83 657 l 303 817 l 588 483 l 576 425 l 150 92 l 0 265 z "},"„":{"ha":694,"x_min":-93,"x_max":619,"o":"m 53 99 l 321 99 l 142 -183 l -93 -183 l 53 99 m 351 99 l 619 99 l 440 -183 l 204 -183 l 351 99 z "},"“":{"ha":694,"x_min":96,"x_max":808,"o":"m 274 992 l 510 992 l 364 710 l 96 710 l 274 992 m 572 992 l 808 992 l 663 710 l 394 710 l 572 992 z "},"”":{"ha":694,"x_min":96,"x_max":808,"o":"m 242 992 l 510 992 l 332 710 l 96 710 l 242 992 m 540 992 l 808 992 l 631 710 l 394 710 l 540 992 z "},"‘":{"ha":417,"x_min":96,"x_max":531,"o":"m 274 992 l 531 992 l 385 710 l 96 710 l 274 992 z "},"’":{"ha":424,"x_min":96,"x_max":538,"o":"m 242 992 l 538 992 l 360 710 l 96 710 l 242 992 z "},"‚":{"ha":424,"x_min":-93,"x_max":349,"o":"m 53 99 l 349 99 l 169 -183 l -93 -183 l 53 99 z "}," ":{"ha":417,"x_min":0,"x_max":0,"o":""},"¢":{"ha":749,"x_min":7,"x_max":778,"o":"m 243 -11 q 70 77 133 11 q 7 250 7 143 q 17 333 7 293 q 144 567 46 479 q 389 679 242 656 l 417 807 l 649 807 l 621 678 q 778 626 724 663 l 728 388 q 638 435 692 418 q 525 451 585 451 q 389 411 442 451 q 336 296 336 371 q 368 235 336 254 q 474 215 400 215 q 595 233 532 215 q 713 282 658 250 l 661 43 q 475 -11 585 4 l 447 -140 l 215 -140 l 243 -11 z "},"¤":{"ha":857,"x_min":-17,"x_max":888,"o":"m -17 182 l 119 268 q 110 335 110 297 q 115 392 110 365 q 172 517 131 460 l 75 603 l 233 757 l 339 657 q 501 693 415 693 q 647 657 588 693 l 794 756 l 888 603 l 756 517 q 764 451 764 483 q 757 392 764 426 q 703 268 744 328 l 799 181 l 639 25 l 533 124 q 372 89 457 89 q 226 124 289 89 l 78 25 l -17 182 m 417 297 q 490 325 457 297 q 532 392 524 353 q 536 422 536 408 q 517 470 536 453 q 457 488 497 488 q 375 451 411 488 q 339 367 339 414 q 358 316 339 335 q 417 297 378 297 z "},"$":{"ha":806,"x_min":-44,"x_max":847,"o":"m 199 -15 q 60 9 125 -8 q -44 51 -4 26 l 17 338 q 167 271 85 293 q 324 249 250 249 q 390 259 371 249 q 410 292 410 269 q 385 330 410 313 q 283 383 360 347 q 135 490 182 433 q 88 624 88 547 q 94 688 88 650 q 201 868 117 792 q 410 975 286 944 l 439 1114 l 671 1114 l 643 988 q 847 929 757 978 l 788 653 q 556 722 679 722 q 447 679 458 722 q 462 646 443 658 q 536 607 481 633 q 585 586 553 601 q 735 488 692 536 q 779 367 779 439 q 768 279 779 331 q 660 90 744 165 q 432 -10 575 15 l 404 -143 l 172 -143 l 199 -15 z "},"€":{"ha":838,"x_min":-1,"x_max":939,"o":"m 440 -21 q 263 19 342 -21 q 135 134 183 58 q 81 314 88 210 l -1 314 l 31 468 l 90 468 l 94 485 l 99 504 l 39 504 l 71 658 l 149 658 q 346 906 218 819 q 656 992 474 992 q 812 974 749 992 q 939 915 875 957 l 878 625 q 771 689 825 669 q 640 708 717 708 q 508 658 563 708 l 653 658 l 621 504 l 426 504 l 422 485 l 418 468 l 613 468 l 581 314 l 419 314 q 543 257 449 257 q 683 278 618 257 q 828 344 747 299 l 768 60 q 611 -2 682 17 q 440 -21 540 -21 z "},"£":{"ha":672,"x_min":-54,"x_max":739,"o":"m -11 206 l 75 206 l 121 419 l 35 419 l 78 625 l 164 625 l 175 676 q 317 910 207 829 q 593 992 428 992 q 739 963 685 992 l 686 714 q 596 738 646 738 q 482 649 500 738 l 476 625 l 625 625 l 582 419 l 433 419 l 388 206 l 619 206 l 576 0 l -54 0 l -11 206 z "},"¥":{"ha":1088,"x_min":151,"x_max":1197,"o":"m 313 76 l 154 76 l 193 257 l 351 257 l 365 328 l 207 328 l 247 511 l 322 511 l 151 971 l 494 971 l 597 678 l 839 971 l 1197 971 l 819 511 l 893 511 l 853 328 l 694 328 l 681 257 l 839 257 l 800 76 l 642 76 l 626 0 l 297 0 l 313 76 z "},"~":{"ha":686,"x_min":8,"x_max":722,"o":"m 493 297 q 420 307 458 297 q 328 336 382 317 q 244 363 275 354 q 183 372 213 372 q 8 300 92 372 l 65 568 q 239 628 133 628 q 303 619 269 628 q 396 590 338 610 q 482 563 447 572 q 547 553 517 553 q 722 625 642 553 l 665 357 q 493 297 600 297 z "},"÷":{"ha":569,"x_min":10,"x_max":590,"o":"m 326 586 q 265 609 289 586 q 242 668 242 632 q 282 758 242 719 q 372 797 322 797 q 434 774 410 797 q 458 714 458 750 q 418 624 458 663 q 326 586 378 586 m 63 550 l 590 550 l 538 301 l 10 301 l 63 550 m 214 54 q 153 77 176 54 q 129 136 129 100 q 169 226 129 188 q 258 265 208 265 q 322 241 297 265 q 346 181 346 217 q 306 92 346 131 q 214 54 265 54 z "},"∕":{"ha":896,"x_min":-60,"x_max":1010,"o":"m 690 992 l 1010 992 l 260 -21 l -60 -21 l 690 992 z "},"=":{"ha":697,"x_min":-18,"x_max":757,"o":"m 101 735 l 757 735 l 706 494 l 50 494 l 101 735 m 33 417 l 689 417 l 638 175 l -18 175 l 33 417 z "},">":{"ha":731,"x_min":-53,"x_max":754,"o":"m 15 336 l 318 458 l 67 579 l 136 901 l 754 563 l 707 346 l -53 7 l 15 336 z "},"<":{"ha":731,"x_min":18,"x_max":825,"o":"m 18 346 l 65 563 l 825 901 l 756 571 l 454 450 l 704 328 l 636 7 l 18 346 z "},"¬":{"ha":636,"x_min":17,"x_max":657,"o":"m 349 335 l 17 335 l 63 550 l 657 550 l 575 169 l 313 169 l 349 335 z "},"−":{"ha":569,"x_min":10,"x_max":590,"o":"m 63 550 l 590 550 l 538 301 l 10 301 l 63 550 z "},"×":{"ha":590,"x_min":18,"x_max":608,"o":"m 275 263 l 157 165 l 18 340 l 138 439 l 60 538 l 274 713 l 350 614 l 471 714 l 608 538 l 489 439 l 567 340 l 354 164 l 275 263 z "},"%":{"ha":1256,"x_min":96,"x_max":1214,"o":"m 301 482 q 153 538 210 482 q 96 682 96 594 q 101 736 96 710 q 163 865 117 806 q 275 958 210 924 q 410 992 340 992 q 559 935 501 992 q 617 790 617 878 q 611 736 617 760 q 549 608 596 667 q 437 516 503 550 q 301 482 371 482 m 868 971 l 1188 971 l 444 0 l 125 0 l 868 971 m 339 658 q 403 685 375 658 q 431 747 431 711 q 414 790 431 774 q 371 807 397 807 q 307 779 335 807 q 279 714 279 751 q 296 674 279 690 q 339 658 313 658 m 899 -21 q 750 35 807 -21 q 693 181 693 92 q 699 233 693 210 q 760 362 714 303 q 872 455 807 421 q 1007 489 938 489 q 1156 432 1099 489 q 1214 288 1214 375 q 1208 233 1214 257 q 1147 106 1194 164 q 1034 13 1100 47 q 899 -21 968 -21 m 936 156 q 1000 182 972 156 q 1028 244 1028 208 q 1011 288 1028 271 q 968 304 994 304 q 904 276 932 304 q 876 211 876 249 q 893 172 876 188 q 936 156 910 156 z "},"+":{"ha":569,"x_min":10,"x_max":590,"o":"m 147 301 l 10 301 l 63 550 l 201 550 l 224 654 l 472 654 l 450 550 l 590 550 l 538 301 l 396 301 l 374 196 l 125 196 l 147 301 z "},"±":{"ha":569,"x_min":-54,"x_max":617,"o":"m 175 426 l 36 426 l 89 675 l 228 675 l 250 779 l 499 779 l 476 675 l 617 675 l 564 426 l 424 426 l 401 321 l 153 321 l 175 426 m -1 249 l 526 249 l 474 0 l -54 0 l -1 249 z "},"↑":{"ha":736,"x_min":-54,"x_max":640,"o":"m 206 533 l 100 401 l -54 521 l 293 906 l 640 521 l 486 401 l 379 536 l 379 -128 l 206 -128 l 206 533 z "},"↓":{"ha":736,"x_min":-54,"x_max":640,"o":"m -54 257 l 100 376 l 206 244 l 206 906 l 379 906 l 379 242 l 486 376 l 640 257 l 293 -128 l -54 257 z "},"|":{"ha":371,"x_min":-96,"x_max":514,"o":"m 185 1128 l 514 1128 l 232 -200 l -96 -200 l 185 1128 z "},"¦":{"ha":371,"x_min":-96,"x_max":514,"o":"m 185 1128 l 514 1128 l 392 553 l 63 553 l 185 1128 m 25 375 l 354 375 l 232 -200 l -96 -200 l 25 375 z "},"@":{"ha":1253,"x_min":17,"x_max":1278,"o":"m 522 -106 q 151 -5 285 -106 q 17 281 17 96 q 31 403 17 342 q 174 708 67 575 q 443 917 282 842 q 796 992 604 992 q 1152 895 1026 992 q 1278 624 1278 799 q 1264 504 1278 576 q 1129 240 1228 336 q 890 144 1031 144 q 808 162 844 144 q 757 208 772 179 q 660 162 717 179 q 550 144 604 144 q 378 192 444 144 q 311 335 311 239 q 318 397 311 360 q 399 574 339 496 q 547 696 458 651 q 740 740 635 740 q 876 723 807 740 q 983 676 944 706 l 899 361 q 894 336 894 347 q 918 310 894 310 q 980 363 951 310 q 1028 504 1008 415 q 1040 608 1040 563 q 974 747 1040 704 q 751 789 908 789 q 540 744 642 789 q 365 611 438 699 q 267 403 292 524 q 256 311 256 350 q 332 147 256 201 q 565 93 408 93 q 803 124 703 93 l 763 -69 q 522 -106 651 -106 m 607 329 q 659 346 640 329 q 686 396 678 363 l 726 543 q 693 547 718 547 q 617 510 651 547 q 571 413 583 472 q 565 374 565 382 q 607 329 565 329 z "},"&":{"ha":1133,"x_min":-6,"x_max":1051,"o":"m 311 -21 q 79 38 164 -21 q -6 200 -6 96 q 1 263 -6 225 q 69 413 19 351 q 210 528 119 475 q 174 595 186 561 q 163 671 163 629 q 169 736 163 707 q 297 921 194 850 q 554 992 400 992 q 753 935 683 992 q 824 788 824 879 q 818 736 824 760 q 758 602 801 656 q 636 499 715 549 l 731 386 q 774 517 754 426 l 1033 517 q 978 335 1010 404 q 890 196 946 265 l 1051 0 l 668 0 l 625 47 q 311 -21 513 -21 m 476 638 q 538 687 518 663 q 557 740 557 711 q 544 771 557 760 q 510 782 532 782 q 440 721 453 782 q 476 638 433 686 m 375 188 q 476 221 435 188 l 379 342 q 325 303 343 328 q 307 246 307 279 q 326 203 307 219 q 375 188 344 188 z "},"¶":{"ha":1132,"x_min":82,"x_max":1260,"o":"m 403 340 l 376 340 q 161 408 240 340 q 82 600 82 476 q 93 696 82 640 q 186 892 118 810 q 353 1016 254 974 q 569 1058 453 1058 l 1260 1058 l 996 -186 l 681 -186 l 892 810 l 817 810 l 606 -186 l 290 -186 l 403 340 z "},"©":{"ha":1086,"x_min":36,"x_max":1106,"o":"m 463 -21 q 242 28 339 -21 q 91 165 146 76 q 36 372 36 254 q 49 485 36 426 q 169 751 81 636 q 390 928 258 865 q 678 992 521 992 q 899 943 801 992 q 1051 806 996 894 q 1106 599 1106 717 q 1093 485 1106 546 q 974 219 1061 333 q 756 42 888 104 q 463 -21 625 -21 m 501 157 q 758 242 650 157 q 900 485 867 328 q 913 594 913 546 q 847 758 913 704 q 640 813 782 813 q 382 727 490 813 q 242 485 274 642 q 229 376 229 426 q 296 212 229 267 q 501 157 363 157 m 514 210 q 345 264 411 210 q 279 417 279 318 q 286 483 279 444 q 406 688 315 618 q 631 758 496 758 q 835 711 767 758 l 796 526 q 653 575 740 575 q 578 552 608 575 q 538 483 547 529 q 533 451 533 465 q 553 407 533 421 q 615 393 572 393 q 785 444 697 393 l 744 258 q 514 210 647 210 z "},"®":{"ha":1086,"x_min":36,"x_max":1106,"o":"m 463 -21 q 242 28 339 -21 q 91 165 146 76 q 36 372 36 254 q 49 485 36 426 q 169 751 81 636 q 390 928 258 865 q 678 992 521 992 q 899 943 801 992 q 1051 806 996 894 q 1106 599 1106 717 q 1093 485 1106 546 q 974 219 1061 333 q 756 42 888 104 q 463 -21 625 -21 m 501 157 q 758 242 650 157 q 900 485 867 328 q 913 594 913 546 q 847 758 913 704 q 640 813 782 813 q 382 727 490 813 q 242 485 274 642 q 229 376 229 426 q 296 212 229 267 q 501 157 363 157 m 413 738 l 651 738 q 774 703 729 738 q 818 603 818 668 q 813 557 818 590 q 694 401 789 446 l 739 240 l 567 240 l 529 376 l 504 376 l 475 240 l 307 240 l 413 738 m 565 504 q 615 516 596 504 q 642 557 635 528 q 643 572 643 563 q 588 610 643 610 l 554 610 l 532 504 l 565 504 z "},"§":{"ha":806,"x_min":-89,"x_max":847,"o":"m 246 -236 q 57 -217 150 -236 q -89 -164 -36 -197 l -29 122 q 122 56 39 78 q 278 33 204 33 q 344 44 325 33 q 364 76 364 54 q 339 115 364 97 q 238 168 314 132 q 89 275 136 218 q 42 408 42 332 q 49 472 42 435 q 104 579 61 533 q 90 644 90 608 q 94 688 90 665 q 242 909 124 826 q 551 992 361 992 q 716 976 646 992 q 847 929 786 961 l 788 653 q 556 722 679 722 q 447 679 458 722 q 462 646 443 658 q 536 607 481 633 q 585 586 553 601 q 734 485 690 538 q 778 360 778 432 q 768 279 778 331 q 718 178 758 231 q 728 117 728 153 q 722 64 728 88 q 246 -236 660 -236 m 508 304 q 517 325 515 318 q 500 365 521 347 q 429 408 479 383 q 344 454 354 449 q 338 432 339 440 q 415 356 328 390 q 467 331 438 347 q 508 304 497 314 z "},"™":{"ha":1085,"x_min":114,"x_max":1194,"o":"m 233 796 l 114 796 l 151 971 l 593 971 l 556 796 l 436 796 l 374 500 l 171 500 l 233 796 m 618 971 l 789 971 l 853 768 l 1004 971 l 1194 971 l 1094 500 l 917 500 l 947 644 l 839 500 l 772 500 l 726 644 l 696 500 l 518 500 l 618 971 z "},"°":{"ha":442,"x_min":113,"x_max":521,"o":"m 275 610 q 158 656 204 610 q 113 769 113 701 q 117 810 113 789 q 202 952 135 894 q 360 1010 269 1010 q 476 965 431 1010 q 521 851 521 919 q 517 810 521 831 q 433 667 500 725 q 275 610 365 610 m 306 756 q 347 772 328 756 q 371 810 367 788 q 372 825 372 815 q 362 853 372 843 q 329 864 351 864 q 288 848 307 864 q 263 810 268 832 q 261 797 261 806 q 272 767 261 779 q 306 756 283 756 z "},"^":{"ha":856,"x_min":56,"x_max":869,"o":"m 439 999 l 689 999 l 869 519 l 571 519 l 504 717 l 353 519 l 56 519 l 439 999 z "},"′":{"ha":267,"x_min":88,"x_max":376,"o":"m 151 971 l 376 971 l 313 669 l 88 669 l 151 971 z "},"″":{"ha":531,"x_min":88,"x_max":640,"o":"m 151 971 l 376 971 l 313 669 l 88 669 l 151 971 m 415 971 l 640 971 l 576 669 l 351 669 l 415 971 z "},"ʼ":{"ha":424,"x_min":96,"x_max":538,"o":"m 242 992 l 538 992 l 360 710 l 96 710 l 242 992 z "},"ʻ":{"ha":424,"x_min":96,"x_max":538,"o":"m 274 992 l 538 992 l 392 710 l 96 710 l 274 992 z "},"´":{"ha":438,"x_min":113,"x_max":561,"o":"m 260 1038 l 561 1038 l 376 786 l 113 786 l 260 1038 z "},"¸":{"ha":438,"x_min":-122,"x_max":303,"o":"m 36 -344 q -122 -322 -68 -344 l -94 -207 q -17 -229 -60 -229 q 48 -209 26 -229 q 69 -160 69 -189 q -37 -106 69 -106 l 18 0 l 239 0 l 196 -68 q 274 -100 246 -75 q 303 -164 303 -125 q 300 -190 303 -181 q 221 -301 286 -257 q 36 -344 156 -344 z "},"ˆ":{"ha":781,"x_min":113,"x_max":851,"o":"m 397 1051 l 678 1051 l 851 786 l 550 786 l 510 883 l 428 786 l 113 786 l 397 1051 z "},"¨":{"ha":610,"x_min":133,"x_max":707,"o":"m 233 781 q 162 808 190 781 q 133 878 133 835 q 156 950 133 917 q 213 1003 178 983 q 285 1024 249 1024 q 355 997 328 1024 q 382 928 382 969 q 360 855 382 889 q 305 801 339 821 q 233 781 271 781 m 560 781 q 488 808 517 781 q 460 876 460 835 q 482 949 460 915 q 539 1003 504 983 q 611 1024 574 1024 q 681 997 654 1024 q 707 928 707 969 q 685 855 707 889 q 630 801 664 821 q 560 781 596 781 z "},"`":{"ha":438,"x_min":165,"x_max":508,"o":"m 165 1038 l 467 1038 l 508 786 l 244 786 l 165 1038 z "},"¯":{"ha":551,"x_min":108,"x_max":661,"o":"m 151 968 l 661 968 l 618 769 l 108 769 l 151 968 z "},"˚":{"ha":481,"x_min":131,"x_max":579,"o":"m 310 683 q 181 731 231 683 q 131 851 131 778 q 136 897 131 867 q 228 1050 156 989 q 401 1111 301 1111 q 530 1064 481 1111 q 579 942 579 1017 q 575 897 579 921 q 483 744 554 804 q 310 683 411 683 m 343 840 q 392 862 371 840 q 414 913 414 883 q 403 943 414 932 q 368 954 392 954 q 319 933 340 954 q 297 882 297 911 q 343 840 297 840 z "},"˜":{"ha":631,"x_min":113,"x_max":757,"o":"m 547 783 q 480 792 513 783 q 404 819 447 801 q 335 844 361 836 q 279 853 308 853 q 113 785 189 853 l 157 997 q 322 1053 218 1053 q 383 1044 353 1053 q 460 1018 413 1036 q 530 992 500 1001 q 590 983 560 983 q 757 1051 681 983 l 713 839 q 547 783 651 783 z "}}}
